<svg xmlns="http://www.w3.org/2000/svg" width="239.612" height="48.955" viewBox="0 0 239.612 48.955"><g transform="translate(0 0)"><path d="M137.2,18.275v2.348h-.826V18.275Zm-.721-.193-1.553-.583c.044.294.05,1.029.05,1.363,0,.062,0,.818-.036,1.92-.015.213-.045.534-.045.743,0,.17.028.26.331.26a1.957,1.957,0,0,0,.727-.127c.4-.162.411-.289.42-.389v-.448h.826c0,.057-.015.331-.015.391,0,.2.221.2.279.2.318,0,1.05-.178,1.082-.49.013-.117,0-1.8.007-2.144.252-.067.4-.2.4-.3s-.081-.154-.146-.2l-.92-.73a.244.244,0,0,0-.133-.065c-.079,0-.12.058-.174.125l-.384.477Zm1.011,3.724a1.521,1.521,0,0,1,.862.8,2.146,2.146,0,0,1,.2.917c1.008-.057,1.136-.063,1.538-.268.643-.3.643-.7.643-1.482,0-1.426,0-1.782-.026-4.952h1.024c.066,0,.122-.016.122-.089s-.032-.081-.089-.135l-1.014-.829a.344.344,0,0,0-.154-.075.211.211,0,0,0-.14.091l-.558.844h-4.764c-.148,0-.555-.008-.959-.044l.144.279a2.66,2.66,0,0,1,.667-.042h4.269v4.636c0,.308-.042.38-.443.38-.333,0-1.1-.071-1.323-.1Z" transform="translate(57.476 -10.077)" fill="#005bab"/><path d="M141.561,20.79h-.634v-.818h.634Zm.915-2.259a.779.779,0,0,0,.709-.628v.548c0,.315,0,.785.581.865a14.249,14.249,0,0,0,1.485.024c.854,0,1.125-.041,1.306-.166a.82.82,0,0,0,.282-.672.451.451,0,0,0-.226-.454c-.118-.044-.178-.075-.221-.154-.008-.039-.049-.229-.118-.6l.079-.018a1.089,1.089,0,0,0,.208.026c.117,0,.187-.075.187-.128s-.07-.11-.086-.131l-1.389-1.116a6.333,6.333,0,0,1-.79,1.222v-.806c.195-.058.258-.094.258-.2s-.063-.13-.195-.154l-1.439-.277a10.384,10.384,0,0,1,.078,1.817c-.131-.579-.578-.858-1.584-1.069l.06-.063c.192-.05.346-.1.346-.206,0-.081-.063-.1-.183-.117l-1.72-.386a12.422,12.422,0,0,1-.094,1.579,7.141,7.141,0,0,1-.943-.076l.514,1.561c.011.8.011.894.011,1.058,0,.089-.007,1.438-.057,2.823-.01.182-.029.466-.029.636,0,.213.055.292.292.292a2.981,2.981,0,0,0,.88-.209c.229-.109.248-.2.248-.323v-.987a1.471,1.471,0,0,1,.321.7,2.422,2.422,0,0,1,.037.792,2.452,2.452,0,0,0,1.154-.26c.4-.237.41-.469.41-1.829V19.308c.119-.039.316-.144.316-.29,0-.091-.058-.123-.159-.18Zm-.915,1.246h-.634v-.759h.634Zm0,1.215c0,.143,0,.806-.021.886a.136.136,0,0,1-.152.1c-.083,0-.4-.023-.461-.032v-.949Zm-.045-2.171h-.425l-.826-.25c.553-.24,1.089-.514,1.618-.8a3.124,3.124,0,0,0,.1.493c-.08.008-.105.028-.154.105Zm2.976-1.193a13.217,13.217,0,0,0,1.733-.318,3.573,3.573,0,0,1-.378.6c-.063.071-.117.135-.69.135-.088,0-.537-.01-.592-.023a.122.122,0,0,1-.081-.136C144.483,17.849,144.492,17.666,144.492,17.629Zm-2.69-.352c-.261,0-.352,0-1.107,0a6.27,6.27,0,0,0,.853-.75A3.489,3.489,0,0,1,141.8,17.276Zm4.44,3.872a4.32,4.32,0,0,1-.451.73c-.122.133-.287.154-.709.154-.548,0-.558-.034-.579-.1v-.514a10.946,10.946,0,0,0,1.954-.518.621.621,0,0,0,.171.024c.031,0,.161,0,.161-.122a.156.156,0,0,0-.065-.13L145.387,19.5a2.807,2.807,0,0,1-.307.524c-.185.277-.388.555-.589.818v-.808c.211-.093.286-.128.286-.232s-.06-.13-.18-.164l-1.43-.365v3.187a.961.961,0,0,0,.214.72c.209.217.493.234.941.234h1.488a1.976,1.976,0,0,0,.406-.045.866.866,0,0,0,.69-.881.5.5,0,0,0-.381-.516c-.136-.045-.14-.13-.214-.826Z" transform="translate(60.522 -10.08)" fill="#005bab"/><path d="M148.177,18.1a5.088,5.088,0,0,0,.367-.995V18.1Zm-1.025-1.775c.018.318,0,.834-.024,1.172a1.72,1.72,0,0,0-.565-.183c.007-.766.007-.854.007-.941.117-.047.307-.123.307-.229,0-.08-.063-.123-.148-.14l-1.554-.3a5.268,5.268,0,0,1,.055,1.016c0,.271.024,1.624.036,1.934a3.088,3.088,0,0,0-.441-1.126h-.065a2.5,2.5,0,0,1-.456,1.3c-.157.247-.219.331-.219.475a.514.514,0,0,0,.521.516c.479,0,.62-.462.66-.842-.028,2.046-.036,2.269-.1,4.185v.128c0,.214,0,.277.339.277a1.51,1.51,0,0,0,1.017-.349c.049-.063.049-.2.042-.755q-.015-2.407,0-4.818a2.392,2.392,0,0,1,.153.667c.055.339.219.363.29.376-.091.48-.227,1.05-.339,1.538l.062.016a7.232,7.232,0,0,0,1.361-1.942h.454V20.29h-.428c-.065,0-.534,0-.957-.044l.132.281a2.8,2.8,0,0,1,.678-.045h.576v2.505h-.86c-.052,0-.532,0-.956-.044l.135.281a3.068,3.068,0,0,1,.673-.044h4.3c.071,0,.128-.018.128-.091,0-.049-.015-.057-.084-.128L151.044,22a.234.234,0,0,0-.148-.1.141.141,0,0,0-.131.1l-.552.985h-.243V20.482h1.642c.06,0,.12-.015.12-.088,0-.042-.011-.05-.081-.131l-.8-.889a.248.248,0,0,0-.148-.091.148.148,0,0,0-.128.1l-.427.912h-.183V18.3h1.783c.062,0,.122-.011.122-.094,0-.044-.024-.07-.079-.128l-.894-.839a.348.348,0,0,0-.151-.081.2.2,0,0,0-.149.112l-.448.829h-.183V16.4c.281-.068.461-.117.461-.279,0-.057-.018-.112-.18-.146l-1.756-.268a4.739,4.739,0,0,1,.049,1Z" transform="translate(63.645 -10.071)" fill="#005bab"/><path d="M153.484,21.153a.7.7,0,0,1-.813.6c-.535,0-.784-.258-.784-.451,0-.252.36-.383.677-.383A2.311,2.311,0,0,1,153.484,21.153Zm.044-1.616c.024.641.024.712.031.806a3.31,3.31,0,0,0-.411-.026c-.99,0-1.649.461-1.649,1.162,0,.464.4,1.1,1.563,1.1a2.061,2.061,0,0,0,1.245-.376.631.631,0,0,0,.2-.36c.187.156.43.365.521.464.167.164.248.234.428.234.378,0,.526-.4.526-.675,0-.79-.991-1.131-1.389-1.256-.094-.983-.12-1.548-.12-1.929a6.836,6.836,0,0,0,.944-.18c.277-.075.5-.175.5-.469,0-.385-.488-.594-.7-.594a2.419,2.419,0,0,0-.711.229c.032-.214.044-.312.071-.462a4.341,4.341,0,0,0,.125-.5,1.022,1.022,0,0,0-1.024-.667,1.167,1.167,0,0,0-.969.542c.746.034.746.175.776,1.36a4.56,4.56,0,0,1-.8.078,1.61,1.61,0,0,1-.91-.208,1.163,1.163,0,0,0,1.332,1.043,1.759,1.759,0,0,0,.4-.041Zm-2.38-.407c-.06.162-.373.956-.429,1.133-.075.239-.149.351-.264.351-.161,0-.179-.269-.179-.372a6.754,6.754,0,0,1,.74-2.486c.112-.23.157-.3.157-.411a1.507,1.507,0,0,0-1.412-1.055.992.992,0,0,0-.213.028.783.783,0,0,1,.363.691,2.175,2.175,0,0,1-.063.479,17.492,17.492,0,0,0-.372,2.963c0,1.753.615,2.3,1.076,2.3a.524.524,0,0,0,.526-.513,3.689,3.689,0,0,0-.1-.542,1.557,1.557,0,0,1-.047-.393,9.5,9.5,0,0,1,.136-1.35,4.437,4.437,0,0,0,.119-.824Z" transform="translate(67.005 -9.861)" fill="#005bab"/><path d="M157.571,20.829V18.963h.271v1.866Zm-3.33.237a3.445,3.445,0,0,1,.68-.042h6.515c.029,0,.12,0,.12-.094,0-.028-.01-.037-.054-.125l-.485-.81a.192.192,0,0,0-.159-.1.149.149,0,0,0-.14.114l-.331.816H160.3V18.963h1.274c.05,0,.128,0,.128-.092,0-.028,0-.032-.078-.135l-.594-.777a.2.2,0,0,0-.17-.1.149.149,0,0,0-.128.109l-.342.8H160.3V16.984h.875c.037,0,.122,0,.122-.1a.166.166,0,0,0-.076-.11l-.951-.8a.336.336,0,0,0-.169-.071.19.19,0,0,0-.123.088l-.511.8h-3c.141-.169.191-.234.331-.419.226-.045.4-.075.4-.219,0-.1-.078-.114-.2-.14l-1.733-.341a7.086,7.086,0,0,1-1.258,2.981l.058.052a6.161,6.161,0,0,0,1.1-.669v.733h-.305c-.1,0-.518,0-.962-.044l.13.276a3.392,3.392,0,0,1,.683-.041h.454v1.866c-.18,0-.584,0-1.056-.039Zm3.33-2.294V16.984h.271v1.788Zm-.9-1.788v1.788h-.282V16.984Zm0,1.98v1.866h-.282V18.963Zm2.382-1.98v1.788h-.281V16.984Zm0,1.98v1.866h-.281V18.963Zm-3.539,2.215a2.841,2.841,0,0,1-.93.959c-.37.234-.537.331-.537.623a.73.73,0,0,0,.727.755,1.1,1.1,0,0,0,.983-1.214,4.045,4.045,0,0,0-.183-1.123Zm.647.023a3.669,3.669,0,0,1,.162,1.024c0,.084-.034.466-.034.56a.57.57,0,0,0,.6.6.721.721,0,0,0,.73-.759c0-.844-.965-1.277-1.4-1.457Zm1.516.094a2.9,2.9,0,0,1,.313,1.246c.039.591.125.858.643.858a.7.7,0,0,0,.759-.7c0-.313-.209-1.063-1.666-1.46Zm1.482-.06a4.791,4.791,0,0,1,.878,1.72.7.7,0,0,0,.694.581.721.721,0,0,0,.768-.729c0-1.1-1.749-1.512-2.3-1.629Z" transform="translate(69.755 -10.085)" fill="#005bab"/><path d="M163.344,19.324V17.995h1.23v1.329Zm-2.661-2.994h-.3l-1.344-.393a20.033,20.033,0,0,1,.068,2.043c0,1.47-.015,2.935-.057,4.4,0,.114-.019.672-.019.794,0,.237.053.357.287.357a2.668,2.668,0,0,0,.948-.213.414.414,0,0,0,.153-.4c0-.574-.019-1.486-.019-2.056a1.734,1.734,0,0,1,.2,1.16,1.345,1.345,0,0,0,1.334-1.378,2.581,2.581,0,0,0-1.191-2.059,11.294,11.294,0,0,0,1.136-1.509l.107-.057c0,2.447,0,2.7,0,4.974a6.317,6.317,0,0,1-.793.029l.793,1.454c.068.109.105.115.153.115.128,0,.143-.144.154-.235a13.588,13.588,0,0,0,1.89-1.35,5.416,5.416,0,0,0,1.421,1.512,2.144,2.144,0,0,1,1.053-1.376v-.073a4.361,4.361,0,0,1-1.774-.909,14.217,14.217,0,0,0,1.4-.568,1.383,1.383,0,0,0,.162.019.094.094,0,0,0,.1-.105c0-.05-.016-.07-.081-.127l-.826-.647c.355-.258.355-.318.355-.8,0-.114-.01-.42-.034-.776-.011-.462-.011-.927-.011-1.212.18-.081.321-.153.321-.271,0-.063-.011-.071-.154-.166l-.9-.688c-.112-.083-.123-.088-.161-.088-.076,0-.1.028-.159.114l-.362.472h-1.089l-1.491-.417a6.923,6.923,0,0,1,.036.732l-.706-.673c-.131-.114-.138-.127-.187-.127s-.058.013-.088.058Zm3.891,3.2c-.028.342,0,.461.385.449-.114.3-.141.355-.393.891a2.72,2.72,0,0,1-.725-1.34Zm-.891,0a5.589,5.589,0,0,0,.362,2.205c-.151.037-.276.047-.7.107V19.528Zm.891-3.008V17.8h-1.23V16.52Zm-3.882,0c-.049.832-.088,1.246-.2,2.114a4.646,4.646,0,0,1,.251,1.48c0,.375-.162.411-.341.43,0-.438-.007-3.8-.007-4.024Z" transform="translate(72.955 -10.042)" fill="#005bab"/><g transform="translate(102.994 5.36)"><path d="M151.965,27.982a3.258,3.258,0,1,1-3.26-3.257A3.266,3.266,0,0,1,151.965,27.982Zm-9.853,0a3.259,3.259,0,1,1-3.266-3.257A3.274,3.274,0,0,1,142.112,27.982Zm19.717,0a3.259,3.259,0,1,1-3.255-3.257A3.272,3.272,0,0,1,161.83,27.982Z" transform="translate(-44.634 -9.809)" fill="#df0011"/><path d="M96.779,43.7c.138,2.066,1.175,2.927,2.306,2.927,1.882,0,2.634-1.613,2.634-3.432,0-3.13-2.116-4.19-4.235-4.19H96.167V30.982h1.178c2.54,0,3.9-.912,3.9-3.88,0-1.261-.422-3.279-1.978-3.279-1.975,0-1.924,2.57-1.924,2.929V27l-9.275.052c.425-6.955,5.038-11.5,11.575-11.5A10.889,10.889,0,0,1,110.617,26.7a8.921,8.921,0,0,1-4.282,7.868c3.244,1.819,4.8,5.1,4.8,8.982,0,7.315-5.884,11.346-12.2,11.346-6.58,0-11.805-4.539-11.566-11.854h9.36Z" transform="translate(-74.666 -15.522)" fill="#df0011"/><path d="M102.653,38.314c0-3.075,2.4-5.7,5.178-5.7a5.658,5.658,0,0,1,5.6,5.855,5.4,5.4,0,1,1-10.779-.154Z" transform="translate(-65.146 -4.897)" fill="#df0011"/><path d="M112.609,53.987V24.732H108.8V15.953H122.21V53.987Z" transform="translate(-61.319 -15.272)" fill="#df0011"/><path d="M118.887,46.266V38.252l10.684-22.3h11.768V38.1h3.06v8.167h-3.06v7.721h-9.559V46.266ZM132.11,31.591c0-1.613.243-3.231.38-4.845l-.1-.1L126.7,38.1h5.412Z" transform="translate(-55.037 -15.272)" fill="#df0011"/><path d="M92,15.533H79.539v15h5.41V21.014H92Z" transform="translate(-79.539 -15.533)" fill="#df0011"/><path d="M143.681,45.378h12.462V30.186h-5.418v9.706h-7.044Z" transform="translate(-39.599 -6.409)" fill="#df0011"/></g><g transform="translate(47.135 18.031)"><path d="M47.2,36.426c-.01-.125-.021-.29-.495-.29-.068,0-.43,0-.43.221,0,.19.281.253.339.269,1.223.274,1.749.383,1.749,1.03a.881.881,0,0,1-.506.769,2.77,2.77,0,0,1-1.149.221,2.175,2.175,0,0,1-1.269-.367.862.862,0,0,1-.325-.656h1.069c.024.381.385.4.623.4.341,0,.5-.105.5-.266a.225.225,0,0,0-.18-.213,4.9,4.9,0,0,0-.638-.156c-1.219-.237-1.269-.617-1.269-.923,0-.854,1.026-.946,1.5-.946a2.543,2.543,0,0,1,1.076.221.852.852,0,0,1,.466.682Z" transform="translate(-45.115 -15.756)" fill="#e50012"/><path d="M49.775,37.406c0,.333-.385.571-.86.571-.143,0-.578-.021-.578-.281s.368-.3.8-.365a2.614,2.614,0,0,0,.639-.141Zm1.167,1.125v-.068a.432.432,0,0,1-.159-.305V36.48c0-.842-1.043-.956-1.582-.956a2.98,2.98,0,0,0-1.306.261.923.923,0,0,0-.438.722h.991a.231.231,0,0,1,.174-.265,1.809,1.809,0,0,1,.561-.078c.146,0,.592,0,.592.3,0,.239-.279.271-.818.325-.978.109-1.665.222-1.665.931a.818.818,0,0,0,.292.667,1.307,1.307,0,0,0,.931.261,1.981,1.981,0,0,0,.808-.143,1.223,1.223,0,0,0,.451-.3.538.538,0,0,0,.091.329Z" transform="translate(-43.759 -15.756)" fill="#e50012"/><path d="M50.755,35.629v.341a1.326,1.326,0,0,1,1.113-.446c.8,0,1.248.386,1.248,1.055v1.952H52.11V36.825c0-.4-.258-.591-.665-.591a.617.617,0,0,0-.69.6v1.692H49.746v-2.9Z" transform="translate(-42.231 -15.756)" fill="#e50012"/><path d="M54.8,36.447v1.417c0,.284.164.336.375.336h.3v.677c-.109,0-.639.044-.759.044-.748,0-.948-.305-.948-.73V36.447H53.2V35.9h.573v-.819H54.8V35.9h.69v.544Z" transform="translate(-40.082 -16.03)" fill="#e50012"/><path d="M55.839,36.712a.762.762,0,0,1,.279-.44.914.914,0,0,1,.458-.136.689.689,0,0,1,.7.576Zm1.353.959a.637.637,0,0,1-.6.357.951.951,0,0,1-.472-.133.77.77,0,0,1-.3-.621H58.36a1.82,1.82,0,0,0-.226-.995,1.757,1.757,0,0,0-1.576-.755,1.578,1.578,0,1,0,.006,3.122,2.049,2.049,0,0,0,1.408-.493,1.336,1.336,0,0,0,.313-.482Z" transform="translate(-39.114 -15.756)" fill="#e50012"/><path d="M58.222,35.629v.341a1.317,1.317,0,0,1,1.112-.446c.8,0,1.248.386,1.248,1.055v1.952H59.575V36.825c0-.4-.266-.591-.667-.591a.614.614,0,0,0-.686.6v1.692H57.209v-2.9Z" transform="translate(-37.584 -15.756)" fill="#e50012"/><path d="M61.887,38.9H60.813V36h1.074Zm0-3.219H60.813v-.755h1.074Z" transform="translate(-35.34 -16.129)" fill="#e50012"/><path d="M64.3,36.689a.5.5,0,0,0-.187-.305.836.836,0,0,0-.5-.149.92.92,0,0,0-.443.1.847.847,0,0,0-.349.748.98.98,0,0,0,.191.621.739.739,0,0,0,.6.232.624.624,0,0,0,.7-.5H65.38c-.083.682-.7,1.215-1.77,1.215-1.115,0-1.838-.581-1.838-1.566,0-1.016.772-1.556,1.832-1.556a1.951,1.951,0,0,1,1.462.548,1.411,1.411,0,0,1,.273.617Z" transform="translate(-34.744 -15.756)" fill="#e50012"/><path d="M65.236,34.93v1.41a1.315,1.315,0,0,1,1.108-.446c.813,0,1.256.386,1.256,1.055V38.9H66.591V37.179c0-.388-.277-.574-.669-.574a.616.616,0,0,0-.686.6V38.9H64.225V34.93Z" transform="translate(-33.216 -16.126)" fill="#e50012"/><path d="M67.746,38.9H66.67V36h1.076Zm0-3.219H66.67v-.755h1.076Z" transform="translate(-31.693 -16.129)" fill="#e50012"/><path d="M72.481,35.589l-1.334,2.94a.925.925,0,0,1-.511.461,2.485,2.485,0,0,1-.93.125,4.269,4.269,0,0,1-.56-.034v-.675h.423c.31,0,.323-.149.323-.286a.2.2,0,0,0-.013-.068l-1.131-2.463h1.079l.787,1.741.779-1.741Z" transform="translate(-30.399 -15.716)" fill="#e50012"/><path d="M72.214,37.08a.755.755,0,0,1,.763-.845.745.745,0,0,1,.746.823.767.767,0,0,1-.754.876A.754.754,0,0,1,72.214,37.08Zm.763-1.556c-.928,0-1.811.462-1.811,1.556a1.823,1.823,0,1,0,1.811-1.556Z" transform="translate(-28.893 -15.756)" fill="#e50012"/><path d="M74.634,35.629v.341a1.326,1.326,0,0,1,1.11-.446c.808,0,1.256.386,1.256,1.055v1.952H75.987V36.825c0-.4-.261-.591-.664-.591a.617.617,0,0,0-.69.6v1.692H73.621v-2.9Z" transform="translate(-27.365 -15.756)" fill="#e50012"/><path d="M51.993,26.3v1.219H50.613v2.153h1.381V30.77H50.853V36.3h3.817V30.77H53.54V29.677H54.9V27.523H53.54V26.3H55.2V37.162H50.324V26.3ZM46.251,40.158h1.762V27.963a31.308,31.308,0,0,0,.649-3.755V40.158h1.662v-.651H55.2v.651h1.787V24h-8.3l.049-.445L46.9,23.366a14.415,14.415,0,0,1-1.692,6.2l.488,3.854c.278-.435.365-.576.553-.909ZM53.407,32.6v1.9h-1.3V32.6Z" transform="translate(-45.056 -23.327)" fill="#005bab"/><path d="M57.869,26.235v1.692H55.255V26.235Zm-.123,7.523a26.676,26.676,0,0,1-.24,3.576c-.054.161-.136.3-.594.281H55.868l.316,2.466h1.522a1.394,1.394,0,0,0,1.469-1.269,69.649,69.649,0,0,0,.389-7.432H56.514c.01-.511.01-.584.024-1.219h3.077V23.946H53.5v6.216h1.258c-.088,4.141-.445,5.978-1.736,7.88l1.345,2.079a13.256,13.256,0,0,0,2.023-6.363Zm2.622,2.15h1.738V24.42H60.368Zm2.554.774c-.013.584-.024.688-.378.688h-1.43l.323,2.712h2.087c.276,0,1.183-.12,1.183-1.689V23.4H62.922Z" transform="translate(-40.195 -23.306)" fill="#005bab"/><path d="M70.508,33.331v1.092H67.613V33.331Zm-4.7-2.145v8.931h1.8v-.578h2.895v.578h1.809V31.186Zm4.7,5.107v1.115H67.613V36.292Zm-9.48-1.335a9.406,9.406,0,0,0,1.358-.462v2.481c0,.389-.1.48-.363.48H60.991l.263,2.645H62.8c.607,0,1.361-.125,1.361-1.92V33.722c.667-.357.881-.475,1.207-.686l-.039-2.52a9.313,9.313,0,0,1-1.168.6V28.753h1.1V26.316h-1.1V23.449H62.386v2.867H60.895v2.437h1.491V31.84c-.7.243-1.058.329-1.582.472Zm10.7-11.492a10.1,10.1,0,0,1-4.245,1.357V23.431H65.618v5.144c0,.6,0,1.714,1.342,1.714h4.187c.93,0,1.517-.13,1.749-3.424L71.272,26.2a4.817,4.817,0,0,0,1.217-.506ZM67.48,26.934a19.307,19.307,0,0,0,3.6-.67c-.1,1.576-.227,1.576-.566,1.576h-2.54c-.351,0-.5-.112-.5-.518Z" transform="translate(-35.346 -23.287)" fill="#005bab"/><path d="M78.259,29.086v.566H74.4v-.566Zm-6.148-4.774v1.642h3.156a5.966,5.966,0,0,1-.1.6h-2.51v5.795h7.4V26.553H76.987c.042-.11.127-.532.151-.6h3.38V24.312H79.113a3.829,3.829,0,0,0,.255-.826l-1.937-.144a4.8,4.8,0,0,1-.2.97H75.571a7.505,7.505,0,0,0-.263-.97l-1.848.092c.083.23.2.547.3.878Zm6.148,3.338v.555H74.4V27.65Zm0,2.88V31.1H74.4V30.53Zm-9.451-4.785c.263.14,1.42.758,1.644.91.37.248.6.441.831.615l.7-2.413a10.355,10.355,0,0,0-1.253-.793,12.321,12.321,0,0,1-1.212-.63Zm-.05,9.493v1.887h2.552l-1.082.742A10.949,10.949,0,0,1,71.937,40.1L73.7,38.848a13,13,0,0,0-1.248-1.723h4.425v.634c0,.193,0,.368-.227.368H74.8l.315,1.989h2.486A1.176,1.176,0,0,0,78.8,38.8V37.125h1.718V35.238H78.8v-.656h1.681l.3-1.7H73.229a1.406,1.406,0,0,1-1.465-.759V27.714H68.759v2.311h1.154v1.514a9.845,9.845,0,0,1-1.431,1.11l.654,2.59Zm.5,0a19.689,19.689,0,0,0,1.568-1.817,2.3,2.3,0,0,0,2.14,1.162h3.906v.656Z" transform="translate(-30.565 -23.342)" fill="#005bab"/></g><path d="M18.478,61.185a2.364,2.364,0,0,1-1.527-.5,2.454,2.454,0,0,1-.865-1.735c-.459-4.5,7.755-16.783,15.584-26.291,8.1-9.835,18.81-20.425,23.195-20.425a2.377,2.377,0,0,1,1.529.5,2.467,2.467,0,0,1,.863,1.735c.459,4.5-7.76,16.785-15.587,26.3C33.572,50.6,22.866,61.185,18.478,61.185ZM54.858,14.643c-2.533.015-11.4,7.485-21.325,19.547-11.1,13.48-15.553,22.86-15.049,24.582,2.527-.01,11.4-7.481,21.325-19.544C50.9,25.752,55.358,16.371,54.858,14.643Z" transform="translate(-16.068 -12.23)" fill="#e50012"/><path d="M36.53,55.979A20.537,20.537,0,1,0,16.1,35.443,20.484,20.484,0,0,0,36.53,55.979Z" transform="translate(-16.046 -10.564)" fill="#aacc03"/><g transform="translate(4.384 12.685)"><g transform="translate(14.369)"><path d="M29.881,20.047c1.026,0,1.457,2.173,1.425,3.27-.031.876-.321,2.793-1.469,2.838-1.262.045-1.568-2.562-1.568-2.562h-.646l.667-.675h0S28.3,20.047,29.881,20.047Zm-.029,2.486s0-1.058-.482-1.058c-.513.008-.522,1.029-.522,1.029s.01.938.477.94C29.839,23.447,29.852,22.533,29.852,22.533Z" transform="translate(-27.624 -20.047)" fill="#e50012"/></g><path d="M49.28,32.3c-5.543,6.325-9.115,3.059-9.115,3.059-2.082-1.752-2.478-6.273-2.548-8.258l.748-.308c5.171-2.454,8.741-2.846,10.278-2.281a2.761,2.761,0,1,0,3.494,2.66,2.892,2.892,0,0,0-.487-1.728c-.969-1.514-4.336-5.027-12.873-1.658h0l-6.229,2.554C27.372,28.8,23.8,29.188,22.264,28.619a2.761,2.761,0,1,0-3.49-2.661,2.832,2.832,0,0,0,.485,1.731c.972,1.507,4.339,5.025,12.876,1.658l.925-.38C31.474,39.41,24.7,39.793,24.7,39.793l-2.4-1.024L25.769,43.4c6.651-1.563,8.113-11.039,8.438-14.9l2.452-1.009c-.193,2.509-.389,8.284,1.73,10.565,0,0,4.847,5.462,12.052-2.724l1.451.449Z" transform="translate(-18.769 -18.602)" fill="#005bab"/></g><path d="M18.077,60.953a2.21,2.21,0,0,1-1.439-.466l1.516-1.877a.165.165,0,0,0-.067-.037c1.574.437,10.053-5.738,21.411-19.537C50.817,25.288,55.222,15.8,54.51,14.357a.241.241,0,0,0,.055.063l1.516-1.881a2.473,2.473,0,0,1,.865,1.736c.459,4.5-7.758,16.783-15.584,26.294C40.621,41.469,24.5,60.953,18.077,60.953Z" transform="translate(-15.713 -12.037)" fill="#e50012"/><path d="M48.322,21.174c-.127-.485-.266-.962-.435-1.423l-.685.287c.052.153.08.26.161.57-.279.034-.448.047-.609.057a22.074,22.074,0,0,0,1.293-2.3V18.6H49.7v.386H48.322Zm0,1.417h.915a4.657,4.657,0,0,1-.946,1.162,14.947,14.947,0,0,0-.175-1.585l-.709.161c.075.5.127,1.43.133,1.783l.4-.076a1.291,1.291,0,0,1-.2.148l.6,1.2a5.749,5.749,0,0,0,1.37-1.866V25.56h1V23.475a5.768,5.768,0,0,0,1.264,1.817l.518-1.342a4.064,4.064,0,0,1-1.282-1.36h.907v-3.6H50.7V18.6h1.642V17.388H50.7v-.56h-1v.56H48.048v.7l-.714-.37a11.228,11.228,0,0,1-.626,1.371c-.042-.068-.089-.133-.217-.321a11.131,11.131,0,0,0,.764-1.731l-.912-.237a6.933,6.933,0,0,1-.451,1.22c-.013-.016-.105-.118-.161-.174l-.453,1.207a6.7,6.7,0,0,1,.871,1.056c-.058.112-.149.265-.351.594a3.487,3.487,0,0,1-.435.013l.058,1.232c.263-.021.338-.032,1-.11V25.56h.86V21.708c.1-.016.316-.054.326-.054.016.123.026.174.05.328l.664-.274ZM49.7,21.134v.449h-.485v-.449Zm0-1.2v.448h-.485v-.448Zm1.49,0v.448H50.7v-.448Zm0,1.2v.449H50.7v-.449Zm-5.676,1.12a10.057,10.057,0,0,1-.226,2.234l.716.623a16.1,16.1,0,0,0,.242-2.776Z" transform="translate(2.121 -9.384)" fill="#231815"/><path d="M51.382,20.151v-.725h2.165a18.714,18.714,0,0,0,.5,3.64,4.776,4.776,0,0,1-.972.959,8.243,8.243,0,0,0,.161-1.493c.013-.376.037-2.04.039-2.38Zm1.7,5.5a5.613,5.613,0,0,0,1.433-1.2c.268.56.665,1.162,1.243,1.162.381,0,.779-.178,1.167-1.806L56.272,22.7c-.117.521-.3,1.284-.571,1.284-.161,0-.316-.381-.42-.659a11.985,11.985,0,0,0,1.142-3.146l-1.063-.467a8.894,8.894,0,0,1-.5,1.915c-.063-.461-.144-1.1-.209-2.2h2.111V18.1h-.589l.386-.282a5.4,5.4,0,0,0-.915-1.081L54.8,17.3a5.746,5.746,0,0,1,.672.8H54.6c-.015-.4-.015-.672-.015-1.269H53.457c.01.185.036,1.069.045,1.269H50.28v3.706a8.864,8.864,0,0,1-.131,1.389,4.385,4.385,0,0,1-.454,1.34l.961,1.1a9.88,9.88,0,0,0,.727-3.727V21.4h.8a16.02,16.02,0,0,1-.083,1.644c-.05.3-.138.3-.248.3h-.5l.183,1.426h.706a.655.655,0,0,0,.219-.031Z" transform="translate(4.871 -9.424)" fill="#231815"/><path d="M58.517,22.907c.174.273.31.472.6.959-.235.006-1.4.073-1.655.088-.131.01-.19.01-.717.01.217-.548.367-.964.573-1.566h2.064Zm2.588,2.043A16.833,16.833,0,0,0,59.562,22.4h1.522V21.07H54.449V22.4H56.09a14.207,14.207,0,0,1-.508,1.576c-.131,0-.707.015-.824.015a2.046,2.046,0,0,1-.252-.015l.172,1.43c1.671-.063,1.929-.1,5.066-.4.143.284.206.42.3.652Zm-5.283-4.521h3.911v-.561a7,7,0,0,0,1.1.706l.573-1.389a7.127,7.127,0,0,1-2.955-2.4H57.133a6.331,6.331,0,0,1-2.992,2.424l.558,1.4a6.652,6.652,0,0,0,1.123-.7Zm.826-1.232a6.383,6.383,0,0,0,1.133-1.3,8.694,8.694,0,0,0,1.147,1.3Z" transform="translate(7.64 -9.396)" fill="#231815"/><path d="M58.733,20.508a5.641,5.641,0,0,0,2.329-3.448l1.262.183a8.481,8.481,0,0,1-.381,1.066h1.746c.013.062.049.346.052.4l1.318-.263a10.515,10.515,0,0,1-.821,3.3,5.52,5.52,0,0,1-4.466,3.539l-.48-1.383c1.864-.3,3.635-1,4.346-4.227H61.243A6.471,6.471,0,0,1,59.483,21.6Zm6.2-2.306a10.047,10.047,0,0,0-.31-1.316l.644-.12a9.415,9.415,0,0,1,.329,1.293Zm-1.026.182a12.153,12.153,0,0,0-.29-1.392l.644-.125a10.854,10.854,0,0,1,.341,1.371Z" transform="translate(10.499 -9.406)" fill="#231815"/><path d="M65.2,19.523a19.1,19.1,0,0,1-.227,3.036,5.425,5.425,0,0,1-1.1,2.656l-.93-1.193a3.75,3.75,0,0,0,.9-2.074,15.8,15.8,0,0,0,.18-2.26V17.38H65.2ZM67.2,23.1a2.007,2.007,0,0,0,1.118-1.2,6.73,6.73,0,0,0,.5-1.976l1.1.662a6.3,6.3,0,0,1-1.259,3.1,3.542,3.542,0,0,1-2.634,1.264V17.091H67.2Z" transform="translate(13.116 -9.203)" fill="#231815"/><path d="M74.07,19v1.538H67.581V19Z" transform="translate(16.009 -8.014)" fill="#231815"/><path d="M78.127,17.776a.355.355,0,1,1-.691,0,.353.353,0,1,1,.691,0Zm-6.053-.032v1.449h4.539c-.234,2.233-1.043,4.1-4.06,4.638l.56,1.4c3.846-.988,4.555-3.891,4.776-6.122-.578,0-1.147-.269-1.172-1.365Zm6.543.032a.851.851,0,1,0-1.665,0,.854.854,0,1,0,1.665,0Z" transform="translate(18.807 -9.415)" fill="#231815"/></g></svg>