<svg xmlns="http://www.w3.org/2000/svg" width="696.197" height="253.213" viewBox="0 0 696.197 253.213"><g transform="translate(-50 -210)"><g transform="translate(50 210)"><g transform="translate(275.891)"><path d="M784.643,1322.333l-8.722-25.013H761.3l6.927,25.013Z" transform="translate(-683.95 -1212.02)" fill="#e35327"/><path d="M765.75,1322.333l-6.157-25.013H745.1l4.618,25.013Z" transform="translate(-688.53 -1212.02)" fill="#e35327"/><path d="M746.8,1322.333l-3.335-25.013H729.1l1.924,25.013Z" transform="translate(-693.053 -1212.02)" fill="#e35327"/><path d="M721.008,1322.333l13.6-25.013H718.443L701,1322.333Z" transform="translate(-700.998 -1212.02)" fill="#e35327"/><path d="M807.757,1284.183l1.924-5.644H796.6l2.822-25.141h6.029l1.924-5.644h-66.06l15.136-16.034h-17.83l-32.2,28.733h14.751l-2.181,18.086H706.422l-1.924,5.644h13.853l-2.694,22.319H707.32l-1.924,5.644H800.7l2.052-5.644h-9.236l2.437-22.319ZM737.207,1306.5h-6.8l2.565-22.319h6.8Zm3.207-27.963h-6.8l2.95-25.141h6.67Zm17.317,27.963h-6.542l2.437-22.319h6.67Zm3.207-27.963h-6.67l2.822-25.141h6.8Zm17.83,27.963h-7.055l2.437-22.319h7.183Zm3.207-27.963h-7.183l2.822-25.141h7.311Z" transform="translate(-700.008 -1230.566)" fill="#e35327"/><path d="M870.576,1269.773l-6.542-32.453H848.9l6.542,32.453Z" transform="translate(-668.184 -1228.982)" fill="#e35327"/><path d="M843.049,1267.5l9.364-31.683H842.151L834.2,1267.5Z" transform="translate(-672.34 -1229.406)" fill="#e35327"/><path d="M881.775,1342.8l3.592-32.068,9.749-1.667.641-5.772-9.749,1.667,8.338-74.141H878.312l-8.594,77.091-27.45,4.874-.77,5.772,27.578-4.874-3.207,29.118Z" transform="translate(-670.276 -1230.82)" fill="#e35327"/><path d="M867.1,1296.33l-6.927-32.709H845.3l6.542,32.709Z" transform="translate(-669.202 -1221.547)" fill="#e35327"/><path d="M824.581,1267.5l-2.052-31.683H811.5l2.95,31.683Z" transform="translate(-678.758 -1229.406)" fill="#e35327"/><path d="M850.4,1331.744l-.257-50.924h-8.722l.385-3.335h12.571l1.924-5.516H842.445l4.233-40.149H832.311l-4.361,40.149H812.686l-1.924,5.516h16.547l-.385,3.335h-10.39L801.4,1338.029h12.7l10.39-52.206h1.924l-6.157,56.7h14.623l6.029-56.7h2.052l-1.924,45.921Z" transform="translate(-681.613 -1230.537)" fill="#e35327"/><path d="M975.409,1332.515l-2.565-61.571H960.427l.411-3.079h18.779l1.437-4.413H961.248l1.847-16.214H950.679l-1.745,16.214H930.668l-1.539,4.413h19.292l-.308,3.079H935.594l-16.316,61.571H932l12.93-57.466H947.6l-5.131,47.1h-6.054l-1.231,4.412h6.773l-1.129,10.262h12.314l1.129-10.262h6.67l1.231-4.412h-7.389l5.234-47.1h2.771l.308,57.466Z" transform="translate(-660.286 -1226.178)" fill="#212121"/><path d="M922.2,1336.463l5.945-55.618h-5.131l15.29-32.324H926.2l-23.807,44.331h11.9l-4.926,43.612Z" transform="translate(-665.06 -1225.816)" fill="#212121"/><path d="M1002.309,1314.968l3.284-28.528h-3.284l-3.592,28.528Z" transform="translate(-642.958 -1215.095)" fill="#212121"/><path d="M997.9,1315.994l3.9-29.554h-3.592L994,1315.994Z" transform="translate(-644.293 -1215.095)" fill="#212121"/><path d="M993.358,1317.02l4.412-30.58h-4.207l-4.926,30.58Z" transform="translate(-645.808 -1215.095)" fill="#212121"/><path d="M988.665,1318.046l5.234-31.606h-6.568l-6.773,31.606Z" transform="translate(-648.093 -1215.095)" fill="#212121"/><path d="M1044.4,1310.978h14.058l3.489-31.812h-13.238l.616-4.412h4.413l.924,2.36h12.109l-10.262-23.6h-7.7l4-5.952h-11.288l-22.063,29.451h-5.541l.923-8.62h7.8l1.026-3.9h-8.421l1.026-9.441h9.954l1.232-4.31H991.239l-4.926,43.612h24.833l-4,36.121H990.623l.718,3.9h24.936l4.721-43.92h-8.62l1.129-9.543h7.286l1.026-3.8h10.98l1.642-2.36h4.1l-.616,4.412H1025.2l-3.8,31.812h11.9l-16.823,25.757h13.648l11.288-20.216,5.131,20.216h12.211l-6.978-23.192h-8.62l1.129-2.052Zm-41.663-20.524H997.2l1.026-9.543h5.541Zm1.437-13.443h-5.541l1.026-8.62h5.439Zm1.43-12.519h-5.541l1.026-9.441h5.541Zm29.656,43h-3.694l2.771-24.628h3.8Zm16.008-24.628-2.668,24.628h-3.9l2.873-24.628Zm-14.257-11.9,9.851-14.572,5.439,14.572Z" transform="translate(-646.465 -1226.087)" fill="#212121"/></g><path d="M26.459-6.386,8-21.425,4.45,8.527Zm-3.014-.126-16.7,11.4,2.7-22.856Z" transform="translate(158.838 226.598)" fill="#212121"/><path d="M3.825,9.555,7.608-22.387,27.3-6.349ZM8.387-20.463,5.075,7.5,25.622-6.423ZM6.117,5.917,9.053-18.936,24.279-6.475ZM9.832-17.007,7.367,3.853l15.244-10.4Z" transform="translate(158.838 226.598)" fill="#212121"/><path d="M68.906,1.867l1.125-3.7H47.848l2.331-22.907H66.334l1.045-3.456H50.5l1.045-10.449H71.076l1.045-3.617H33.782L40.855-51.9H29.924L7.259-24.094H18.672L16.1-1.831H6.134l-1.206,3.7h31.1L34.345,17.459H45.839L47.446,1.867ZM39.168-28.194H23.414L31.13-38.642h9.163ZM36.435-1.831h-9.4L30-24.737h8.841Zm110.354,19.29L130.875,1.3h6.269l9.082-12.378H134.652L127.74-1.911l-8.279-8.359H109.9l.4-3.215h39.544l1.206-3.456H110.62l.965-8.118h31.748l.964-3.3H111.987l.8-7.234h31.668l1.045-3.3H113.112L114-46.439h36.249l1.206-3.456H103.146l-3.7,32.954H88.839l-1.206,3.456H99.047L96.233,11.672,85.7,13.682,85.061,17.3l36.892-6.751.563-3.778L107.647,9.582,109.736-8.5l23.389,25.961ZM263.814,11.19l-5.787-49.35H247.418l5.064,49.35Zm-25.8,4.822L245.489-51.9H234.156L227,12.315H212.374l.723,3.7ZM213.982,9.261,228.369-38.16H217.358L202.247,9.261Zm116.3,6.108,4.5-34.561h-34l3.7-23.791H325.22l-2.009,14.066h12.3l2.17-18.245H293.231L283.024,15.369ZM318.549,11.19H295.964l4.1-26.2h22.183Z" transform="translate(-4.928 235.754)" fill="#212121"/><ellipse cx="5.651" cy="5.651" rx="5.651" ry="5.651" transform="translate(35.254 162.38)" fill="#f3a728"/><ellipse cx="5.651" cy="5.651" rx="5.651" ry="5.651" transform="translate(227.399 162.38)" fill="#f3a728"/><ellipse cx="5.651" cy="5.651" rx="5.651" ry="5.651" transform="translate(114.373 162.38)" fill="#f3a728"/><ellipse cx="5.651" cy="5.651" rx="5.651" ry="5.651" transform="translate(302.751 162.38)" fill="#f3a728"/><path d="M45.195-17.491l2.137-18.544H13.768l-2.2,18.544Zm3.12,29.462L41.844,1.688l6.932-9.647.4-2.2H29.366l-.751,2.426h1.213L35.085,1.63l-.116.173-9.012,9.012,2.6-23.57H50.509l.751-2.311H6.432l-.809,2.311H9.955L7.529,6.483l-3.755.635-.462,2.6L19.661,7.061l-.635,5.488h6.759l.058-.578h7.51l4.622-5.315,3,5.315Zm-9.59-39.918H20.643l.693-5.719h18.14ZM37.685-19.8H19.718l.693-5.835H38.436ZM38.667-3.4,35.952-7.728h5.719ZM21.394-8.537H16.079l.52-4.217h5.257Zm-.751,6.643H15.27l.52-4.333h5.373ZM19.95,4.461,14.4,5.385,14.981.359h5.43Zm79.721,7.51-13-32H83.091l1.675-2.888H102.1l.809-2.657H85.286l1.444-11.727H78.47L77.2-25.579H60.85l-.867,2.657h16.06L55.189,11.913h9.647L80.318-15.123,90.486,11.971Zm51.992-41.363.924-3.12H116.02l-.982,3.12Zm-.347,38.879.924-3.12h-43.9l-.982,3.12Zm25.418-30.733L172.4-35.862h-7.568l4.275,14.616ZM194.759.648l1.906-16.522H185.574L183.552.648Zm10.976,11.323L179.681,3.826l3.351-12.709,1.1-8.723h14.616L196.492,2.266H189.5l.462,2.369h12.767l4.622-40.554H180.143L176.908-9.692,172.922,3.017h-3.293L176.273-16.8l.4-2.2H163.333l-.751,2.542h6.643l-10.918,29h8.145l2.6-7.8,19.815,7.221ZM199.843-27.6h-4.275l.578-4.853h-6.412l-.578,4.853h-3.813l.751-6.008h14.442Zm-.867,7.8h-4.39l.693-5.6h4.333Zm-10.8,0h-3.813l.693-5.6h3.813Zm2.2,18.486h-2.022l1.56-12.536h1.964ZM254.2,11.74l5.257-47.6H239.3L236.93-14.776h12.825L246.982,9.256H236.468l.462,2.484Zm-11.092-4.1,2.369-20.161H226.185L223.759,7.638Zm-23.57,4.91,3-27.325h12.3l2.369-21.086H217.578l-5.373,48.411ZM251.084-26.33h-6.066l.809-6.99h6.066Zm-1.04,9.185h-6.066l.751-6.817H250.8ZM229.536-26.33h-5.661l.751-6.99h5.719Zm-1.1,9.185h-5.6l.751-6.817h5.661Zm9.416,13.229h-6.066l.751-6.355h6.066ZM236.7,5.443h-6.008l.809-7.106h6.066Z" transform="translate(-3.312 98.833)" fill="#e35327"/><path d="M1.245,3.957c6.63-.4,12.937-2.642,12.937-7.927,0-2.567-2.268-4.113-5.658-4.113a7.716,7.716,0,0,0-1.072.05c2.343-.523,5.534-1.67,5.534-4.537,0-2.343-1.57-4.063-5.185-4.063a6.163,6.163,0,0,0-5.908,3.24l.748.324a5.259,5.259,0,0,1,3.938-2.119c1.969,0,3.166,1,3.166,2.817,0,1.969-2.293,3.415-5.235,4.337L4.859-7.01A8.39,8.39,0,0,1,6.4-7.185c2.393,0,4.387,1.246,4.387,3.24,0,4.063-4.437,6.306-9.846,6.93ZM19.317,2.312A1.832,1.832,0,0,0,21.136.418a1.821,1.821,0,1,0-3.639,0A1.832,1.832,0,0,0,19.317,2.312Zm13.36-.1V-16.632l-5.434,1.894v1.271l2.218-.723v16.4Zm18.371,0V-2.4H53.54V-4.742H51.048V-16.208H48.256L39.283-4.692V-2.4h8.749V2.212ZM48.032-4.742H40.678l7.353-9.372ZM77.3-14.414a17.158,17.158,0,0,0-3.265-1.994l-.449.449a12.97,12.97,0,0,1,2.144,3.415Zm-2.218,1.5a11.988,11.988,0,0,0-3.215-2.542l-.474.4a14.672,14.672,0,0,1,1.869,3.814ZM66.7-13.192a46.75,46.75,0,0,0-7.2-2.218l-.324.8a18.079,18.079,0,0,1,5.459,4.437ZM64.458-8.755a31.351,31.351,0,0,0-7.4-2.318l-.374.723A21.285,21.285,0,0,1,62.24-5.565ZM74.8-10.65C72.335-4.767,67.175-1.327,57.529-.829l.748,3.515c9.8-.7,15.454-6.456,17.573-12.762ZM99.33.966V.143H95.217l1.2-9.522H85.7v.922h7.777l-1.1,8.6h-9.1V.966Zm24.029-12.214v-1.346H109.375v1.346ZM127.048.318V-1.1H105.611V.318Zm15.8-6.007c3.913-1.545,6.655-3.864,8.2-7.528l-.025-1.346H131.934v1.072h14.881a10.691,10.691,0,0,1-4.537,7.029Zm-10.07,8.674A13.784,13.784,0,0,0,142.8-10.8h-3.864c0,6.132-1.72,10.1-6.655,13.061ZM177.05.318V-.829h-9.123V-11.672h6.157v-1.147H158.156v1.147h6.032V-.829h-9.023V.318Zm11.217-5.16V-15.834h-3.54V-4.842Zm-1.545,8.226c8.8-1.67,10.968-6.979,10.968-11.715v-7.5h-3.54v7.5c0,5.534-2.194,9.048-8,10.893Zm39.01-9.223V-8.282h-6.556c-4.711,0-9.746-.025-12.962-.224l.424,2.667Zm23.854-.548a35.333,35.333,0,0,0-9.5-3.515v-6.581h-3.515V2.96h3.515V-8.78a28.584,28.584,0,0,1,7.553,5.459Z" transform="translate(6.924 42.387)" fill="#212121"/></g><path d="M-86.14-45.041l11.183-17.573H-89.229L-99.666-45.041Zm13.526-21.407,3.728-9.372-74.339,4.367-3.834,9.266Zm-27.691,21.407-5.219-16.4h-12.887l5.538,16.4Zm28.117,15.975,1.7-13.419h-80.2l-1.6,13.419h13.845l.852-9.159h52.826l-1.385,9.159Zm-47.394-15.975-8.733-15.336h-13.206l8.627,15.336Zm43.453,59.535-26.2-19.916L-79.644-23.1l.746-4.367h-68.8l-1.385,4.473h7.881l20.236,16.934L-159.1,14.494h23.857l23.111-13.1,15.656,13.1ZM-97.323-22.995-111.7-12.558-125.44-22.995ZM10.991,14.6l7.136-64.647H28.564l1.385-4.686H18.659L20.9-75.181H6.624L4.281-54.733H-27.244l-1.491,4.686H3.748L-2.961,9.915H-22.238l.852,4.686ZM-4.878-4.889l-5.751-42.6H-23.942l5.538,42.6ZM-37.255,15.666l6.177-57.725h-5.538l19.171-33.549H-31.185L-59.728-29.6h13.313l-5.112,45.264Zm150.7-18.745,6.39-56.553H90.229L92.04-76.14H76.7L74.893-59.632H45.924l-6.5,56.553H68.609l-2.13,18.745H81.815l2.13-18.745ZM99.282-7.765h-14.8L89.7-54.946h15.017Zm-30.14,0H54.018l5.645-47.181h14.7ZM157.858-13.2l11.289-60.068h-19.7L145.185-13.2Zm0,26.732L160.1-4.889H141.777L139.54,13.536Z" transform="translate(563.62 444.603)" fill="#212121"/></g></svg>