<svg xmlns="http://www.w3.org/2000/svg" width="337.862" height="122.883" viewBox="0 0 337.862 122.883"><g transform="translate(-18.485 -118.118)"><g transform="translate(18.485 118.118)"><g transform="translate(133.889)"><path d="M772.627,1309.459l-4.233-12.139h-7.1l3.362,12.139Z" transform="translate(-723.761 -1255.924)" fill="#e35327"/><path d="M755.12,1309.459l-2.988-12.139H745.1l2.241,12.139Z" transform="translate(-717.646 -1255.924)" fill="#e35327"/><path d="M737.688,1309.459l-1.619-12.139H729.1l.934,12.139Z" transform="translate(-711.606 -1255.924)" fill="#e35327"/><path d="M710.709,1309.459l6.6-12.139h-7.844L701,1309.459Z" transform="translate(-700.998 -1255.924)" fill="#e35327"/><path d="M754.609,1257.18l.934-2.739h-6.349l1.369-12.2h2.926l.934-2.739H722.364l7.345-7.781h-8.653l-15.625,13.944h7.159l-1.058,8.777h-6.1l-.934,2.739h6.723l-1.307,10.832h-4.046l-.934,2.739h46.252l1-2.739H747.7l1.183-10.832Zm-34.237,10.832h-3.3l1.245-10.832h3.3Zm1.556-13.571h-3.3l1.432-12.2H723.3Zm8.4,13.571h-3.175l1.183-10.832h3.237Zm1.556-13.571h-3.237l1.37-12.2h3.3Zm8.653,13.571h-3.424l1.183-10.832h3.486Zm1.556-13.571h-3.486l1.37-12.2h3.548Z" transform="translate(-702.319 -1231.16)" fill="#e35327"/><path d="M859.418,1253.069l-3.175-15.749H848.9l3.175,15.749Z" transform="translate(-761.198 -1233.274)" fill="#e35327"/><path d="M838.493,1251.2l4.544-15.376h-4.98L834.2,1251.2Z" transform="translate(-755.649 -1232.708)" fill="#e35327"/><path d="M861.044,1285.164l1.743-15.563,4.731-.809.311-2.8-4.731.809,4.046-35.98h-7.781l-4.171,37.412-13.322,2.365-.373,2.8,13.384-2.365-1.556,14.131Z" transform="translate(-758.405 -1230.82)" fill="#e35327"/><path d="M855.88,1279.494l-3.362-15.874H845.3l3.175,15.874Z" transform="translate(-759.839 -1243.203)" fill="#e35327"/><path d="M817.847,1251.2l-1-15.376H811.5l1.432,15.376Z" transform="translate(-747.08 -1232.708)" fill="#e35327"/><path d="M825.177,1280.313l-.125-24.713H820.82l.187-1.618h6.1l.934-2.677h-6.723l2.054-19.484H816.4l-2.117,19.484h-7.408l-.934,2.677h8.03l-.187,1.618h-5.042l-7.345,27.763h6.163l5.042-25.336h.934l-2.988,27.514h7.1l2.926-27.514h1l-.934,22.285Z" transform="translate(-743.267 -1231.198)" fill="#e35327"/><path d="M946.518,1288.624l-1.245-29.88h-6.026l.2-1.494h9.113l.7-2.141h-9.611l.9-7.868h-6.026l-.847,7.868h-8.864l-.747,2.141h9.362l-.149,1.494H927.2l-7.918,29.88h6.175l6.275-27.888h1.295l-2.49,22.858h-2.938l-.6,2.141h3.287l-.548,4.98h5.976l.548-4.98H939.5l.6-2.141h-3.586l2.54-22.858h1.345l.149,27.888Z" transform="translate(-793.59 -1237.019)" fill="#212121"/><path d="M912.007,1291.2l2.885-26.991H912.4l7.42-15.687h-5.876l-11.554,21.514h5.777l-2.39,21.165Z" transform="translate(-787.216 -1237.502)" fill="#212121"/><path d="M1000.461,1300.285l1.594-13.844h-1.594l-1.743,13.844Z" transform="translate(-826.069 -1251.817)" fill="#212121"/><path d="M995.89,1300.783l1.892-14.343H996.04L994,1300.783Z" transform="translate(-824.287 -1251.817)" fill="#212121"/><path d="M990.929,1301.281l2.141-14.841h-2.042l-2.391,14.841Z" transform="translate(-822.264 -1251.817)" fill="#212121"/><path d="M984.492,1301.779l2.54-15.338h-3.187l-3.287,15.338Z" transform="translate(-819.214 -1251.817)" fill="#212121"/><path d="M1014.5,1278.337h6.822l1.693-15.438h-6.424l.3-2.141h2.141l.448,1.145h5.876l-4.98-11.454h-3.735l1.942-2.888h-5.478l-10.707,14.293h-2.689l.448-4.183h3.785l.5-1.892h-4.087l.5-4.582h4.831l.6-2.092H988.7l-2.39,21.165h12.052l-1.939,17.529H988.4l.349,1.892h12.1l2.291-21.314h-4.183l.548-4.631h3.536l.5-1.843h5.329l.8-1.145h1.992l-.3,2.141h-6.175l-1.843,15.438h5.777l-8.164,12.5h6.623l5.478-9.811,2.49,9.811h5.926l-3.386-11.255h-4.183l.548-1Zm-20.219-9.96H991.6l.5-4.631h2.689Zm.7-6.524h-2.689l.5-4.183h2.639Zm.694-6.076h-2.689l.5-4.582h2.689Zm14.392,20.866h-1.793l1.345-11.952h1.843Zm7.769-11.952-1.295,11.952h-1.892l1.394-11.952Zm-6.919-5.777,4.781-7.072,2.639,7.072Z" transform="translate(-821.386 -1237.14)" fill="#212121"/></g><path d="M15.131-14.127l-8.959-7.3L4.45-6.889Zm-1.463-.061L5.562-8.657l1.31-11.092Z" transform="translate(74.793 120.995)" fill="#212121"/><path d="M3.825-5.862,5.782-22.387l10.186,8.3ZM7.262-18.784l-1.074,9.1,6.647-4.535Z" transform="translate(74.793 120.995)" fill="#212121"/><path d="M35.976-25.809l.546-1.794H25.757L26.888-38.72h7.84l.507-1.677H27.044l.507-5.071h9.478l.507-1.755H18.931L22.363-51.9h-5.3l-11,13.5H11.6L10.35-27.6H5.513l-.585,1.794h15.1L19.2-18.242h5.578l.78-7.567ZM21.544-40.4H13.9l3.745-5.071H22.09ZM20.218-27.6H15.654L17.1-38.72h4.291Zm53.554,9.361-7.723-7.84h3.042L73.5-32.089H67.883l-3.354,4.447L60.511-31.7H55.869l.2-1.56H75.255l.585-1.677H56.22l.468-3.94H72.1l.468-1.6H56.883l.39-3.51H72.641l.507-1.6H57.429l.429-3.667H75.45l.585-1.677H52.593L50.8-34.937H45.65l-.585,1.677H50.6L49.238-21.051l-5.11.975-.312,1.755L61.72-21.6l.273-1.833-7.216,1.365,1.014-8.776,11.351,12.6Zm56.792-3.042-2.808-23.949h-5.149l2.457,23.949Zm-12.521,2.34,3.628-32.96h-5.5L112.7-20.739h-7.1l.351,1.794Zm-11.663-3.276,6.982-23.013h-5.344l-7.333,23.013Zm56.441,2.964,2.184-16.772h-16.5L150.3-47.574h10.063l-.975,6.826h5.968l1.053-8.854h-21.57l-4.954,30.346Zm-5.695-2.028H146.167L148.156-34h10.765Z" transform="translate(-4.928 141.126)" fill="#212121"/><ellipse cx="2.743" cy="2.743" rx="2.743" ry="2.743" transform="translate(17.109 78.802)" fill="#f3a728"/><ellipse cx="2.743" cy="2.743" rx="2.743" ry="2.743" transform="translate(110.356 78.802)" fill="#f3a728"/><ellipse cx="2.743" cy="2.743" rx="2.743" ry="2.743" transform="translate(55.505 78.802)" fill="#f3a728"/><ellipse cx="2.743" cy="2.743" rx="2.743" ry="2.743" transform="translate(146.924 78.802)" fill="#f3a728"/><path d="M23.637-27.69l1.037-9H8.386l-1.065,9Zm1.514,14.3-3.14-4.99,3.364-4.682.2-1.065H15.956l-.364,1.177h.589l2.551,4.542-.056.084L14.3-13.953l1.262-11.438H26.217l.364-1.121H4.826l-.392,1.121h2.1L5.359-16.055l-1.822.308-.224,1.262,7.934-1.29-.308,2.663h3.28l.028-.28H17.89l2.243-2.579,1.458,2.579ZM20.5-32.764H11.723l.336-2.775h8.8Zm-.5,3.953H11.274l.336-2.832h8.747Zm.477,7.962-1.318-2.1h2.775Zm-8.383-2.5H9.508l.252-2.047h2.551Zm-.364,3.224H9.115l.252-2.1h2.607Zm-.336,3.084-2.691.449.28-2.439H11.61Zm38.689,3.645L43.767-28.923H42.029l.813-1.4h8.411l.392-1.29H43.094l.7-5.691H39.786l-.617,5.691H31.235l-.421,1.29h7.794L28.488-13.42h4.682l7.513-13.12,4.934,13.148ZM75.306-33.465l.449-1.514H58.009l-.477,1.514ZM75.138-14.6l.449-1.514H54.28L53.8-14.6ZM87.474-29.512l-2.1-7.093H81.7l2.075,7.093Zm8.747,10.625.925-8.018H91.763l-.981,8.018Zm5.327,5.495L88.9-17.345l1.626-6.168.533-4.233h7.093L97.062-18.1H93.669l.224,1.149h6.2l2.243-19.681h-13.2l-1.57,12.728-1.934,6.168h-1.6l3.224-9.616.2-1.065H80.969L80.6-27.185h3.224l-5.3,14.074h3.953L83.745-16.9l9.616,3.5Zm-2.86-19.2H96.613l.28-2.355H93.781L93.5-32.6h-1.85l.364-2.916h7.009Zm-.421,3.785H96.136l.336-2.719h2.1Zm-5.243,0h-1.85l.336-2.719h1.85ZM94.09-19.84h-.981l.757-6.084h.953ZM125.069-13.5l2.551-23.1h-9.784l-1.149,10.233h6.224L121.564-14.71h-5.1l.224,1.206Zm-5.383-1.99,1.149-9.784h-9.364l-1.177,9.784Zm-11.438,2.383,1.458-13.261h5.971l1.149-10.233h-9.532l-2.607,23.493Zm15.307-18.868h-2.944L121-35.372h2.944Zm-.5,4.458h-2.944l.364-3.308h2.944ZM113.1-31.979H110.35l.364-3.392h2.775Zm-.533,4.458h-2.719l.364-3.308h2.747Zm4.57,6.42h-2.944l.364-3.084H117.5Zm-.561,4.542h-2.916l.392-3.448h2.944Z" transform="translate(-3.312 67.165)" fill="#e35327"/><path d="M1.091-6.64c3.218-.194,6.278-1.282,6.278-3.847,0-1.246-1.1-2-2.746-2a3.744,3.744,0,0,0-.52.024c1.137-.254,2.685-.81,2.685-2.2,0-1.137-.762-1.972-2.516-1.972a2.991,2.991,0,0,0-2.867,1.573l.363.157A2.552,2.552,0,0,1,3.68-15.93c.956,0,1.536.484,1.536,1.367,0,.956-1.113,1.657-2.54,2.1l.169.5a4.071,4.071,0,0,1,.75-.085c1.161,0,2.129.6,2.129,1.573,0,1.972-2.153,3.06-4.778,3.363Zm8.77-.8a.889.889,0,0,0,.883-.919.889.889,0,0,0-.883-.919.889.889,0,0,0-.883.919A.889.889,0,0,0,9.861-7.439Zm6.484-.048v-9.145l-2.637.919v.617l1.077-.351v7.96Zm8.915,0V-9.725h1.21v-1.137H25.26v-5.564H23.905l-4.355,5.589v1.113H23.8v2.238ZM23.8-10.862H20.228L23.8-15.41ZM38-15.555a8.327,8.327,0,0,0-1.585-.968l-.218.218a6.294,6.294,0,0,1,1.04,1.657Zm-1.077.726a5.818,5.818,0,0,0-1.56-1.234l-.23.194a7.12,7.12,0,0,1,.907,1.851Zm-4.064-.133a22.688,22.688,0,0,0-3.5-1.077l-.157.387A8.774,8.774,0,0,1,31.853-13.5Zm-1.089,2.153a15.214,15.214,0,0,0-3.593-1.125l-.181.351a10.329,10.329,0,0,1,2.7,2.323Zm5.02-.919c-1.2,2.855-3.7,4.524-8.383,4.766l.363,1.706c4.754-.339,7.5-3.133,8.528-6.193Zm11.9,5.637v-.4h-2l.581-4.621h-5.2v.448h3.774l-.532,4.173H40.9v.4Zm11.661-5.927v-.653H53.566v.653Zm1.79,5.613V-9.1H51.74v.69Zm7.669-2.915a6.624,6.624,0,0,0,3.98-3.653l-.012-.653H64.514v.52h7.222a5.188,5.188,0,0,1-2.2,3.411Zm-4.887,4.21A6.69,6.69,0,0,0,69.788-13.8H67.913c0,2.976-.835,4.9-3.23,6.339ZM86.409-8.406v-.556H81.981v-5.262h2.988v-.556h-7.73v.556h2.927v5.262H75.788v.556Zm5.443-2.5v-5.335H90.134v5.335ZM91.1-6.918c4.27-.81,5.323-3.387,5.323-5.685v-3.641H94.707V-12.6a4.927,4.927,0,0,1-3.883,5.286Zm18.931-4.476V-12.58h-3.181c-2.286,0-4.73-.012-6.29-.109l.206,1.294Zm11.576-.266A17.147,17.147,0,0,0,117-13.366v-3.194H115.3v9.435H117v-5.7a13.872,13.872,0,0,1,3.665,2.649Z" transform="translate(2.873 29.131)" fill="#212121"/></g><path d="M-123.69-61.048l5.427-8.528h-6.926l-5.065,8.528Zm6.564-10.389,1.809-4.548-36.077,2.119-1.861,4.5Zm-13.438,10.389-2.533-7.96h-6.254l2.688,7.96Zm13.645,7.753.827-6.512h-38.919l-.775,6.512h6.719l.413-4.445h25.636l-.672,4.445Zm-23-7.753-4.238-7.443h-6.409l4.187,7.443Zm21.088,28.892-12.715-9.665,11.009-8.58.362-2.119h-33.389l-.672,2.171h3.825l9.82,8.218-18.5,9.975h11.578l11.216-6.357,7.6,6.357Zm-10.285-18.193-6.978,5.065-6.667-5.065ZM-76.553-32.1l3.463-31.373h5.065l.672-2.274h-5.479l1.085-9.924h-6.926l-1.137,9.924h-15.3l-.724,2.274h15.764l-3.256,29.1h-9.355l.413,2.274Zm-7.7-9.458-2.791-20.674h-6.461l2.688,20.674Zm-15.712,9.975,3-28.014h-2.688l9.3-16.281h-6.667l-13.852,22.328h6.461l-2.481,21.966Zm73.135-9.1,3.1-27.445H-38.1l.879-8.011h-7.443l-.879,8.011H-59.6l-3.153,27.445h14.162l-1.034,9.1h7.443l1.034-9.1Zm-6.874-2.274H-40.89l2.533-22.9h7.288Zm-14.627,0h-7.339l2.739-22.9H-45.8Zm43.054-2.636L.2-74.745H-9.362l-2.067,29.151Zm0,12.973,1.085-8.942h-8.89l-1.085,8.942Z" transform="translate(349.63 271.159)" fill="#212121"/></g></svg>