<svg xmlns="http://www.w3.org/2000/svg" width="280.844" height="61.58" viewBox="0 0 280.844 61.58"><g transform="translate(-115.505 -1171.271)" style="isolation:isolate"><g style="isolation:isolate"><path d="M139.282,1216.57l-1.21,15.275-22.567,1.006,1.61-17.663,14.975-.742,2.306-28.488,7.413-.426-.791,9.8,15.124-.828-.691,2.529-14.643.792-1.316,16.251,15.694-.777-.69,2.525Zm-7.35.359-7.685.375-1.2,12.742,7.837-.355Z" fill="#212121"/><path d="M178.046,1230.689,162.1,1209.272l1.065-7.2,21.126-16.464,14.784-.839-.87,2.57-4.776.268-22.517,17.357-.536,2.643,18.127,22.622Z" fill="#212121"/><path d="M227.295,1227.865l.663-2.571,6.862-.311,2.941-25.85-14,.731-1.1,5.942.605,8.1,5.187-11.922,7.474-.386L224.261,1228l-21.1.942L207.2,1198.2l10.077-.533,1.318-7.791-13.306.733.765-2.569,12.981-.724,1.21-7.1,7.5-.432-1.325,7.121,22.209-1.239-.726,2.6-21.925,1.208-1.434,7.812,20.514-1.086-3.51,31.031Zm-5.9-9.6-4.672.22-.769-11.479,1.153-6.8-3.347.175-3.121,25.691,7.511-.34Z" fill="#212121"/><path d="M250.467,1222.066l5.936-17.329,18.775,3.556-4.923,14.034,4.356.678,8.517-20.145-20.994-4.3,1.351-2.344,14.358-11.354-24.354,1.352.784-2.6,38.611-2.171-.743,2.686L273.2,1198.158l19.289,3.875L281.7,1226.727Zm16.682-12.675-4.171-.787-4.329,12.038,4.273.618Z" fill="#212121"/><path d="M308.278,1225.788l-12.13.536,12.188-7.445,10.3-.474Zm2.771-29.717,1.387-10.059-2.773.151-.4,2.856-3.344,7.319-7.3.38,4.308-8.182,1.669-11.59,19.674-2.9-1.454,4.35-12.34,1.88-.461,3.392,13.44-.745-.58,2.522-4.123.225-1.392,10.076Zm-8.529,21.72,2.359-20.219,33.925-1.756-2.226,20.4Zm26.7-7.471-18.109.87-.462,3.743,18.1-.852Zm.641-5.79-18.057.9-.4,3.388,18.053-.879Zm.7-5.913-18.006.921-.462,3.51,18.06-.906Zm1.636-3.647,1.4-10.116-3.213.176-.525,3.115-2.914,6.8-7.384.385,4.008-7.973,1.8-11.305,20.011-3.11-1.529,4.616-12.536,1.836-.525,3.118,15.178-.841-.588,2.537-5.4.3-1.29,10.127Zm-2.336,29.864-8.615-6.549,9.374-.432,10.065,6.5Z" fill="#e35327"/><path d="M347.559,1224.052l5.484-50.3,20.068-1.151-2.683,23.435-12.417.636-2.958,27.046Zm17.215-37.909-5.638.3-.888,7.764,5.575-.289Zm1.248-10.5-5.76.327-.889,8.008,5.7-.311Zm-6.589,42.913,2.253-19.259,19.919-1.007-2.217,19.359Zm14.931-17.437-6.021.3-1.667,14.411,5.957-.275Zm-1.432,20.967-.478-2.561,10.89-.491,2.7-23.8-13.234.679,2.688-23.45,20.849-1.2-5.489,50.022Zm14.316-37.159-6.242.337-.9,7.808,6.241-.324Zm1.2-10.555-6.186.351-.96,8.058,6.244-.341Z" fill="#e35327"/></g></g></svg>