<svg xmlns="http://www.w3.org/2000/svg" width="24.938" height="16.918" viewBox="0 0 24.938 16.918"><g transform="translate(0.25 0.25)" style="isolation:isolate"><path d="M2192.356,993.046h-18.693a2.876,2.876,0,0,1-2.873-2.872V979.5a2.876,2.876,0,0,1,2.873-2.872h18.693a2.876,2.876,0,0,1,2.872,2.872v10.673A2.876,2.876,0,0,1,2192.356,993.046Zm-18.693-15.269a1.726,1.726,0,0,0-1.724,1.724v10.673a1.725,1.725,0,0,0,1.724,1.723h18.693a1.725,1.725,0,0,0,1.724-1.723V979.5a1.726,1.726,0,0,0-1.724-1.724Z" transform="translate(-2170.79 -976.628)" fill="#fff"/><path d="M2192.356,993.3h-18.693a3.126,3.126,0,0,1-3.123-3.122V979.5a3.126,3.126,0,0,1,3.123-3.122h18.693a3.126,3.126,0,0,1,3.122,3.122v10.673A3.126,3.126,0,0,1,2192.356,993.3Zm-18.693-16.418a2.626,2.626,0,0,0-2.623,2.622v10.673a2.626,2.626,0,0,0,2.623,2.622h18.693a2.625,2.625,0,0,0,2.622-2.622V979.5a2.625,2.625,0,0,0-2.622-2.622Zm18.693,15.268h-18.693a1.976,1.976,0,0,1-1.974-1.973V979.5a1.976,1.976,0,0,1,1.974-1.974h18.693a1.976,1.976,0,0,1,1.974,1.974v10.673A1.976,1.976,0,0,1,2192.356,992.146Zm-18.693-14.12a1.475,1.475,0,0,0-1.474,1.474v10.673a1.475,1.475,0,0,0,1.474,1.473h18.693a1.475,1.475,0,0,0,1.474-1.473V979.5a1.475,1.475,0,0,0-1.474-1.474Z" transform="translate(-2170.79 -976.628)" fill="#fff"/><path d="M2183.44,987.178a1.965,1.965,0,0,1-1.253-.436l-9.9-8.214a.575.575,0,0,1,.734-.885l9.9,8.214a.87.87,0,0,0,1.037,0l9.723-8.024a.575.575,0,1,1,.731.886l-9.723,8.024A1.965,1.965,0,0,1,2183.44,987.178Z" transform="translate(-2171.219 -976.923)" fill="#fff"/><path d="M2183.44,987.428a2.212,2.212,0,0,1-1.413-.494l-9.9-8.214a.825.825,0,0,1,1.053-1.27l9.9,8.213a.622.622,0,0,0,.718,0l9.724-8.025a.824.824,0,0,1,1.161.111.825.825,0,0,1-.111,1.161l-9.723,8.024A2.213,2.213,0,0,1,2183.44,987.428Zm-10.789-9.667a.325.325,0,0,0-.208.575l9.9,8.213a1.768,1.768,0,0,0,2.185,0l9.723-8.024a.325.325,0,1,0-.413-.5l-9.723,8.024a1.118,1.118,0,0,1-1.356,0l-9.9-8.213A.319.319,0,0,0,2172.652,977.761Z" transform="translate(-2171.219 -976.923)" fill="#fff"/></g></svg>