<svg xmlns="http://www.w3.org/2000/svg" width="354.295" height="38.85" viewBox="0 0 354.295 38.85"><g transform="translate(-828.043 -79.482)"><g transform="translate(829.418 81.961)"><path d="M25.238,33.093c-3.443,0-10.337-1.119-17.831-8.614C-2.162,14.912-1.38,6.316-1.118,4.652A5.156,5.156,0,0,1,.347,1.7L2.236-.192a3.629,3.629,0,0,1,5.122,0l4.757,4.759a3.628,3.628,0,0,1,0,5.121L9.608,12.195a28.463,28.463,0,0,0,4.3,5.782,28.423,28.423,0,0,0,5.754,4.28l2.513-2.513a3.632,3.632,0,0,1,5.124,0l4.745,4.747a3.628,3.628,0,0,1,0,5.122l-1.866,1.864a5.162,5.162,0,0,1-2.734,1.432A11.286,11.286,0,0,1,25.238,33.093ZM4.8,1.25A1.113,1.113,0,0,0,4,1.575L2.117,3.465A2.675,2.675,0,0,0,1.358,5l0,.028a14.571,14.571,0,0,0,.512,5.881,26.875,26.875,0,0,0,7.309,11.8,28.535,28.535,0,0,0,9.573,6.553,17.818,17.818,0,0,0,6.49,1.329h0a8.963,8.963,0,0,0,1.7-.132l.045-.009a2.676,2.676,0,0,0,1.429-.743l1.866-1.864a1.125,1.125,0,0,0,0-1.587l-4.745-4.747a1.132,1.132,0,0,0-1.589,0l-3.854,3.854-.824-.459a32.216,32.216,0,0,1-7.124-5.163,32.251,32.251,0,0,1-5.179-7.153L6.5,11.768l3.848-3.848a1.128,1.128,0,0,0,0-1.585L5.591,1.575A1.114,1.114,0,0,0,4.8,1.25Z" transform="matrix(0.995, 0.105, -0.105, 0.995, 3.328, 0)" fill="#e35327"/></g><path d="M25.354-10.975c0-8.375-5.618-11.393-12.069-11.393S1.216-19.351,1.216-10.923V3.018c0,8.063,5.618,11.445,12.069,11.445S25.354,11.081,25.354,3.018Zm-7.283.676V2.394c0,3.85-1.561,5.93-4.786,5.93-3.277,0-4.838-2.081-4.838-5.93V-10.3c0-3.85,1.561-5.93,4.838-5.93C16.51-16.23,18.071-14.149,18.071-10.3Zm28.2-11.6H39.711l-5.878,3.954v7.023l5.15-3.381v28.3h7.283ZM80.236,7.856H67.855L75.242-.831c2.289-2.705,5.41-6.4,5.41-11.132,0-5.93-4.89-10.4-11.341-10.4-6.191,0-11.289,4.214-11.289,10.4h6.451c.208-2.861,2.029-4.37,4.474-4.37a4.2,4.2,0,0,1,4.474,4.37c0,2.341-1.092,4.526-3.329,7.127L58.075,9.313v4.682H80.236Zm29.392-18.832c0-8.375-5.618-11.393-12.069-11.393S85.49-19.351,85.49-10.923V3.018c0,8.063,5.618,11.445,12.069,11.445s12.069-3.381,12.069-11.445Zm-7.283.676V2.394c0,3.85-1.561,5.93-4.786,5.93-3.277,0-4.838-2.081-4.838-5.93V-10.3c0-3.85,1.561-5.93,4.838-5.93C100.784-16.23,102.345-14.149,102.345-10.3Zm10.82,12.173h13.473V-3.953H113.165ZM130.02,4.007c0,6.711,5.566,10.456,12.225,10.456S154.47,10.717,154.47,4.007a9.473,9.473,0,0,0-5.358-8.635,8.959,8.959,0,0,0,4.838-7.907c0-6.347-5.566-9.832-11.7-9.832-6.086,0-11.7,3.485-11.7,9.832a8.959,8.959,0,0,0,4.838,7.907A9.653,9.653,0,0,0,130.02,4.007ZM137.3,3.33a4.913,4.913,0,0,1,4.942-4.994,4.986,4.986,0,0,1,4.994,4.994,5.04,5.04,0,0,1-4.994,5.046A4.93,4.93,0,0,1,137.3,3.33Zm.468-15.138a4.43,4.43,0,0,1,4.474-4.422,4.463,4.463,0,0,1,4.474,4.422,4.518,4.518,0,0,1-4.474,4.526A4.485,4.485,0,0,1,137.771-11.808Zm28.143,1.665v-5.566h8.271l-10.4,29.7h7.543l10.352-30.8v-5.1H159.724v11.757ZM204.67-21.9h-7.8L189.636-7.282c-2.029,4.11-3.277,7.439-3.277,10.248,0,7.959,5.41,11.5,12.121,11.5,6.659,0,12.017-3.589,12.017-11.549,0-6.19-4.318-10.716-9.832-10.716a7.735,7.735,0,0,0-3.485.676ZM193.641,3.226c0-2.965,1.613-5.046,4.838-5.046,3.121,0,4.734,2.081,4.734,5.046,0,3.017-1.613,5.1-4.734,5.1C195.254,8.324,193.641,6.244,193.641,3.226Zm20.392-1.353h13.473V-3.953H214.034ZM239.16-1.456h2.653c3.693,0,5.514,1.873,5.514,5.046a4.491,4.491,0,0,1-4.682,4.734c-3.225,0-4.942-1.665-5.306-3.954h-6.4c.26,5.826,4.578,10.092,12.173,10.092,7.387,0,11.445-4.682,11.445-10.508a9.182,9.182,0,0,0-5.41-8.583,8.782,8.782,0,0,0,4.89-7.855c0-5.358-4.786-9.884-11.341-9.884-6.19,0-11.028,4.006-11.289,9.884h6.451a4.27,4.27,0,0,1,4.474-3.85,4.16,4.16,0,0,1,4.474,4.162c0,3.017-2.029,4.578-4.994,4.578H239.16ZM276.095-21.9H269.54l-5.878,3.954v7.023l5.15-3.381v28.3h7.283Zm21.9,0L285.719,3.851V8.9h15.918v5.1h7.283V8.9H312.2V2.706H308.92V-6.45h-7.283V2.706H294.77L305.955-21.9Z" transform="translate(870.141 101.851)" fill="#e35327"/></g></svg>