<svg xmlns="http://www.w3.org/2000/svg" width="339.547" height="67.375" viewBox="0 0 339.547 67.375">
  <g id="voice" transform="translate(-110.541 -1090.705)">
    <g id="グループ_14581" data-name="グループ 14581" transform="translate(-2106.346 -1513.929)">
      <path id="パス_29429" data-name="パス 29429" d="M2220.659,2672.009l2.568-24.421-6.34.32,12.189-25.454,6.6-.369-7.906,18.559,2.945-.153-3.133,31.2Zm30.3-2.233-2.214-17.2-.754.037-1.932,18.245-6.39.289,1.916-18.219-.914.045-5.928,17.539-6.786.308,7.888-19.849,5.96-.3.219-2.024-10.516.527.7-2.446,10.038-.508.274-2.432-8.433.431,2.341-20.508,23.451-1.3-2.243,20.606-8.7.445-.276,2.435,10.813-.547-.658,2.458-10.377.52-.221,2.027,5.721-.284,3.61,19.4Zm1.862-44.423-10.425.573-1.754,15.431,10.348-.535Z" fill="#e35327"/>
      <path id="パス_29430" data-name="パス 29430" d="M2263.117,2668.533l2.585-22.049,13.9-.7-2.517,22.112Zm1.344-37.267.826-2.537,18.569-1-.781,2.545Zm17.129,19.87,1.263-10.681-2.407.124-.446,1.532-14.283.729.772-2.471,13.141-.678,7.388-8.585,5.826-.31-3.048,3.949,3.573-.188,2.666-3.64,5.9-.314-2.786,3.65,7.736-.406-.736,2.141-7.455.389-.294,2.58,7.011-.362-.734,2.139-6.457.329-.293,2.52,7.118-.36-.734,2.136-6.618.332-.238,2.572,8.493-.421-.734,2.134Zm-15.2-14.062.771-2.474,14.028-.741-.616,2.473Zm.98-12.811.827-2.484,14.159-.786-.781,2.489Zm6.644,24.062-2.506.125-1.983,17.368,2.5-.115Zm21.708,20.286-3.651-3.774-6.159,4.218-9.933.45,12.276-7.909.385-.308-5.874-6.094-3.06.147.669-2.407,24.274-1.183-.4,2.232-7.981,7.3,7.543,6.967Zm6.969-43.191-.471,3.941-6.125.328.468-3.936-2.7.147-.412,3.931-5.937.317.463-3.928-6.035.328.725-2.369,5.543-.3.64-5.694,5.891-.331-.587,5.7,2.645-.145.646-5.705,6.189-.347-.65,5.713,6.146-.337-.683,2.38Zm-10.444,20.544-4.447.222-.289,2.57,4.445-.221Zm.525-4.622-4.395.224-.29,2.514,4.394-.222Zm.525-4.684-4.4.228-.29,2.575,4.4-.226Zm-4.015,18.221,3.217,2.979,3.7-3.313Z" fill="#e35327"/>
      <path id="パス_29431" data-name="パス 29431" d="M2316.308,2666.574l2.024-16.074-10.859.531,22-13.382-18.636.959.8-2.5,13.008-.677,1.087-9.034-10.192.549.856-2.567,9.638-.525.85-7.22,7.836-.438-.913,7.236,9.766-.532-.869,2.583-9.2.495-1.1,9.05.225-.012,15.356-14.186,8.807-.483-15.254,14.206,13-.676-.762,2.517-14.288.736-8,5.222,16.877-.852-2.847,23.741Zm22.715-11.866-13.956.666-1.076,8.167,14-.645Zm1.283-10.213-13.138.656-.841.569-.959,7.184,13.961-.674Z" fill="#e35327"/>
      <path id="パス_29432" data-name="パス 29432" d="M2361.506,2664.106l3.256-20.831,21.108-1.054-5.568-13.832-21.14,1.117.823-2.644,19.326-1.032-4.633-11.39,8.854-.494,4.641,11.411,15.054-.8-.791,2.666-13.213.7,5.636,13.856-.785,2.651-21.517,1.062-2.475,15.637,24.614-1.135-.783,2.64Z" fill="#e35327"/>
      <path id="パス_29433" data-name="パス 29433" d="M2434.88,2646l-1.5,14.828-23.853,1.088,2.132-17.408,15.584-.766.983-9.44-19.7,1.007.852-2.668,19.132-.988.924-9.28-18.633,1,.853-2.677,18.061-.977.782-7.732,7.948-.442-.79,7.745,14.607-.791-.818,2.7-14.072.754-.933,9.295,15.23-.786-.817,2.689-14.7.751-.992,9.455,15.618-.768-.815,2.683Zm-7.856.382-7.83.381-1.482,12.162,8.05-.371Z" fill="#e35327"/>
      <path id="パス_29434" data-name="パス 29434" d="M2479.845,2658.712l.771-2.687,7.488-.345,5.371-38.56-23.816,1.284-5.6,38.385,4.9-.226,9.427-35.841,8.635-.461-10.669,38.61-21.284.97,6.665-43.668,40.262-2.193-6.142,44Z" fill="#212121"/>
      <path id="パス_29435" data-name="パス 29435" d="M2516.725,2646.947l-.143.858-5.567,11.062-9.171.415,7.181-11.968,3.438-19.692,36.9-1.9-3.12,19.822Zm-5.69-22.3.908-2.668,15.413-.813,1.167-7.47L2509,2614.757l.91-2.735,18.993-1.04.944-5.878,8.4-.47-.952,5.888,19.142-1.048-.876,2.758-18.645,1.011-1.175,7.483,16.786-.885-.933,2.691Zm15.615,4.929-6.9.352-2.54,14.38,7.182-.346Zm14.763-.753-7.363.376-2.268,14.407,7.409-.357Z" fill="#212121"/>
    </g>
  </g>
</svg>
