<svg xmlns="http://www.w3.org/2000/svg" width="614.107" height="76.593" viewBox="0 0 614.107 76.593"><g transform="translate(-2418.016 -5621.783)"><path d="M2418.988,5698.376l-.972-7.171,6.345-11.082,9.485-.492-7.079,11.284.743,4.552,28.657-1.5-.741,2.5Zm18-26.8,11.245-12.049-27.3,1.4.858-2.507,37.394-1.912-.741,2.5-11.124,12.039Z" fill="#212121"/><path d="M2486.645,5694.268l1.592-22.486-10.759,3.35-7.633,20.3-8.435.443,16.638-44.577,8.54-.435-8.088,21.486,17.7-5.552-1.651,24.607,12.283-.644-.74,2.5Z" fill="#212121"/><path d="M2527.4,5656.087l-8.175,28.324,4.769-.249-.738,2.494-12.609.659,9.032-30.832-6.873.352.795-2.5,6.759-.345,2.16-7.365,7.72-.393-2.1,7.359,28.068-1.435-.737,2.49Zm-.681,36.638,2.61-19.051,12.083-.626,1.026-8.756-13.5.7.794-2.5,26.705-1.374-.737,2.49-5.609.29-.963,8.75,7.309-.379-.737,2.491-6.856.356-1.926,16.548Zm14.41-17.208-4.423.226-1.929,14.1,4.708-.247Z" fill="#212121"/><path d="M2586.819,5689.571l.678-2.485,5.651-.3,2.317-19.1-8.59.441-3.109,21.6-20.652,1.083,3.283-24.077,13.015-.672,1.471-11.048-16.411.846.793-2.492,15.956-.817,1.188-8.971,7.689-.392-1.131,8.966,10.058-.514-1.638-6.1,7.624-.388,3.727,14.333-7.567.389-1.526-5.821-11.018.565-1.413,11.042,16.046-.829-2.88,24.026Zm-7.408-21.054-5.884.3-2.433,19.124,5.6-.294Z" fill="#e35327"/><path d="M2611.277,5670.429l4.289-21.251,3.949-.205-3.271,21.194Zm4.684,19.06,5.415-47.726,6.429-.328-5.3,47.71Zm11.449-1.436,3.157-26.187-3.213.166.676-13.491,3.269-.167-.168,11.407,5.578-.289-2.817,23.328,5.578-12.8-2.531-12.265,4.281-.217,1.295,6.436,2.648-6.639,4.392-.226-5.35,13,2.427,11.877,2.758-23.147,6.135-.316-3.321,28.229Zm6.2-31.18-1.691-15.536,5.976-.3,1.633,15.537Zm12.844,26.628-3.886.2-1.352-7.433-3.211,7.672-4.226.223-.226,1.682,12.676-.664Zm-4.787-27.039-.506-15.592,6.025-.307.169,15.606Zm5.967-.307,5.01-15.7,6.47-.33-5.176,15.709Z" fill="#e35327"/><path d="M2682.107,5684.684l.844-2.488,4.6-.242,6.962-14.011.841-7.423-9.146.473-5.056,20.077-19.505,1.021,3.881-22.473,13.491-.7,3.145-12.982-15.4.788.786-2.48,23.147-1.182-3.874,15.458,8.869-.457,1.406-12.278,7.628-.39-1.458,12.277,4.263-.217-.729,2.472-3.812.2-1.066,9.1-7.687,14.825ZM2678.4,5661.4l-5.62.29-3.035,17.538,4.384-.226Z" fill="#e35327"/><path d="M2738,5681.639l.671-2.472,6.936-.363,2.964-24.744-14.154.729-1.119,5.709.616,7.781,5.26-11.464,7.552-.39-11.8,25.376-21.563,1.131,4.147-29.71,10.308-.53,1.344-7.5-13.611.7.784-2.48,13.276-.678,1.232-6.824,7.612-.387-1.343,6.827,22.367-1.143-.726,2.472-22.089,1.132-1.455,7.5,20.694-1.065-3.523,29.639Zm-5.99-9.161-4.758.248-.784-11.045,1.175-6.545-3.416.177-3.193,24.779,7.673-.4Z" fill="#212121"/><path d="M2764.727,5663.467l2.9-26.827,7.984-.406-2.567,24.367,6.529-.339-.725,2.472Zm9.437,17.11,14.4-19.062,2.787-26.079,8.138-.41-3.009,27.742-12.6,17.3Z" fill="#212121"/><path d="M2832.715,5663.031l-1.168,13.7-22.926,1.2,1.781-16.174,14.97-.778.779-8.712-18.924.977.78-2.472,18.367-.946.722-8.543-17.864.915.78-2.471,17.307-.886.612-7.1,7.562-.386-.612,7.1,13.835-.708-.722,2.465-13.336.685-.722,8.54,14.448-.745-.723,2.466-13.947.72-.779,8.71,14.838-.77-.723,2.465Zm-7.508.39-7.511.391-1.224,11.28,7.734-.4Z" fill="#212121"/><path d="M2859.266,5675.277l3.774-29.214-8.269.426.776-2.468,7.77-.4,1.61-12.438,7.543-.385-1.554,12.432,12.029-.617,1.5-12.424,7.534-.385-1.44,12.418,8.8-.452-.72,2.462-8.415.432-1.938,16.47-15.407.8.611-2.458,7.427-.386,1.717-14.035-12.028.619-3.328,26.757,26.379-1.382-.72,2.462Z" fill="#212121"/><path d="M2923.5,5671.357l1.547-22.155-10.445,3.293-7.412,19.992-8.19.432,16.153-43.908,8.29-.423-7.848,21.16,17.183-5.456-1.6,24.243,11.924-.624-.718,2.458Z" fill="#212121"/><path d="M2962.133,5669.935l.66-2.453,7-.367,4.185-30.829-6.719.345-11.3,33.793-7.941.417,11.359-33.8-9.373.481.776-2.46,9.427-.483,3.472-10.4,7.878-.4-3.47,10.4,13.71-.7-4.844,35.691Zm23.456-12.877-1.761-25.4,7.207-.369,2.255,25.366Z" fill="#212121"/><path d="M3018.239,5645.1l-.879,8.441-8.4.437,1.427-11.381,10.707-.552,2.2-16.9-13.4.684-1.1,12.406-9.011.464,1.927-15.363,30.415-1.549-2.686,22.736Zm-11.259,22.759,1.155-9.556,9.446-.493-1.153,9.553Z" fill="#212121"/></g></svg>