<svg xmlns="http://www.w3.org/2000/svg" width="696.084" height="138.017" viewBox="0 0 696.084 138.017"><g transform="translate(-245.728 -1655.216)" style="isolation:isolate"><g style="isolation:isolate"><path d="M252.9,1722.989l-.393-2.668,10.92-.556,2.184-18.927-18.927.963.84-2.73,18.367-.935.9-7.663,12.935-10.961-26.766,1.363.9-2.679,35.949-1.83-.391,2.485-15.063,13.142-.617,5.744,18.255-.929-.783,2.727-17.751.9-2.352,21.623Z" fill="#e35327"/><path d="M296.8,1720.026l2.464-20.118,10.863-7.551-3.808-18.287,8.4-.427,3.416,17.186,17.639-.9-.784,2.448-22.455,1.143-5.04,3.561-2.352,20.055,29.231-1.487-.728,2.5Zm31.47-37.217,1.68-9.887,2.352-.119-1.736,9.889Zm4.368-.223,1.736-9.889,3.976-.2-1.736,9.889Z" fill="#e35327"/><path d="M358.955,1717.144l-3.3-13.61,1.064-7-11.76.6.784-2.5,11.368-.578,1.624-10.835-12.152.619.784-2.505,11.76-.6,1.4-9.536,8.064-.41-1.344,9.533,19.936-1.015-.728,2.5-19.544.995-1.568,10.832,20.495-1.043-.728,2.5-20.1,1.023L363.994,1703l2.52,11.3,9.184-.467,4.424-12.042,8.063-.41-5.656,14.569Z" fill="#e35327"/><path d="M394.738,1715.041l9.744-36.391-8.232.419.784-2.5,8.12-.414,2.072-7.888,7.615-.388-2.071,7.889,26.319-1.34-.728,2.5-26.263,1.337-9.632,36.385Zm14.616-1.023,3.584-12.727,7.9-.4-3.136,10.24,19.32-.984-.728,2.5Zm12.207-17.534,6.216-8.884-14.615.744.783-2.5,22.735-1.157-.728,2.5-5.935,8.87Z" fill="#e35327"/><path d="M446.929,1712.666l.9-2.51,24.863-1.265,2.408-16.082-23.184,1.18,7-16.99-13.663.7.84-2.506,13.832-.7,3.751-9.095,8.288-.422-3.752,9.095,20.44-1.04-.728,2.5-20.776,1.057-5.991,14.473,22.287-1.134-3.024,21.043Z" fill="#e35327"/><path d="M495.761,1710.349l3.472-30.642-6.552.333,14.5-17.873,7.615-.388-6.719,9.3,25.7-1.309-4.144,38.853Zm27.216-13.93-17.92.912-1.176,10.029,17.975-.915Zm1.288-11.715-17.92.913-1.008,9.18,17.919-.912Zm1.287-11.993-17.807.906-1.064,9.463,17.807-.906Z" fill="#e35327"/><path d="M556.857,1707.966l-.449-2.272,9.744-.5,1.121-9.8-18.761,12.435-11.815.6,25.872-16.157-23.52,5.228.391-2.6,6.328-1.33,2.52-20.064-6.775.345,15.119-14.155,7.784-.4-7.055,7.248,20.943-1.066-2.128,19.708,7.057-.359-7.561,5.033-1.9,17.233Zm11.647-23.16-13.943.71-.784,6.312,14.28-3.024Zm.952-8.224-13.887.707-.729,5.973,13.889-.707Zm.952-8.449-13.832.7-.727,6.2,13.832-.7Z" fill="#e35327"/><path d="M601.1,1704.875l.672-2.5,7.112-.362,4.256-31.409-6.832.348-11.48,34.407-8.064.411,11.536-34.411-9.52.485.785-2.505,9.575-.488,3.528-10.6,8.008-.407-3.528,10.6,13.944-.71-4.928,36.371Zm23.856-13.086L623.16,1665.9l7.336-.373,2.3,25.868Zm-.9-27.844,1.345-8.3,2.407-.122-1.4,8.3Zm4.368-.222,1.4-8.3,4.032-.205-1.4,8.3Z" fill="#212121"/></g><g style="isolation:isolate"><path d="M283.134,1775.667l-9.3,10.049-11.7,6.81-13.887.707,16.911-8.7-5.488-2.073-3.584,3.263-10.359.527,18.2-14.983,8.568-.436-3.248,2.966,12.487-.635.5-3.778-26.487,1.348-.671,6.362-7.5.382,1.008-8.619,41.437-2.109-1.007,8.62ZM251.5,1766.58l1.456-12.618,8.231-.418.336-2.818-12.711.647.84-2.283,12.1-.616.56-4.843,7-.356-.56,4.843,5.207-.265.561-4.843,7.167-.365-.56,4.843,12.711-.647-.672,2.275-12.319.627-.336,2.817,8.288-.421-1.344,12.611Zm11.479-11.055-3.64.185-.951,8.5,3.7-.188Zm3.584,20.7-4.984,4.509,5.936,2.163,7.111-7.082Zm5.711-21.177-3.583.182-.952,8.5,3.584-.182Zm1.456-4.948-5.263.268-.336,2.818,5.263-.268Zm8.176,4.457-3.864.2-.9,8.5,3.864-.2Z" fill="#212121"/><path d="M319.7,1779.742l-1.12,9.912-8.064.41,1.12-9.912-15.343.781,3.416-29.911,15.231-.775.952-8.728,8.064-.41-.952,8.728,15.567-.792-3.36,29.907Zm-5.04-27.016-7.728.394-2.968,24.957,7.952-.4Zm15.959-.812-7.9.4-2.743,24.946,7.783-.4Z" fill="#212121"/><path d="M344.394,1786.885l6.272-45.343,7.616-.387-5.824,42.855,5.152-.262-.784,2.505Zm14.784-2.432,6.047-15.54,8.176-.416-5.544,13.05,18.2-.926-.84,2.507Zm10.023-24.926,10.024-12.27-18.423.938.84-2.508,27.495-1.4-.785,2.5-9.911,12.265Z" fill="#212121"/><path d="M409.969,1746.812l-8.064,28.41,4.7-.239-.728,2.5-12.431.632,8.9-30.916-6.775.345.783-2.505,6.664-.339,2.128-7.388,7.616-.387-2.072,7.385,27.719-1.411-.728,2.5Zm-.672,36.771,2.576-19.116,11.927-.607,1.009-8.788-13.328.678.784-2.5,26.375-1.343-.728,2.5-5.544.282-.952,8.785,7.224-.367-.728,2.5-6.776.344-1.9,16.617Zm14.224-17.244-4.368.222-1.9,14.152,4.648-.236Z" fill="#212121"/><path d="M447.544,1780.74l.672-2.386,18.032-.918,5.487-16.519-.9-8.187-25.2,1.282.784-2.392,31.415-1.6,1.176,10.413-6.1,19.014Z" fill="#212121"/><path d="M492.9,1779.1l2.52-18.273,9.52-10.172,12.991-.661,2.912-9.947-33.151,1.687.784-2.505,41.551-2.115-4.368,14.952-13.327.678-8.905,9.412-1.9,14.041,19.207-.978-.728,2.5Z" fill="#212121"/><path d="M560.383,1766.486l-1.063,9.853-18.145.923-.336-2.446,10.976-.558.9-7.382-18.76.955.784-2.505,18.312-.932.392-3.323,8.848-4.6-21.168,1.078.784-2.505,31.808-1.619-.5,2.379-12.376,6.566-.168,1.632,17.08-.87-.728,2.5Zm9.184-14.132.84-5.756-25.032,1.274-.56,5.742-8.064.41.952-8,41.048-2.089-1.008,8.005Zm-24.416-8.391-5.488-12.768,7.5-.381,5.6,12.762Zm12.152-.618-3.752-12.856,7.336-.374,3.416,12.874Zm7.336-.373,6.72-13.39,8.064-.41-7.224,13.415Z" fill="#212121"/><path d="M618.007,1773.466,605.8,1736.9l-2.8.143-9.52,18.291,4.423-.225-.671,2.5-13.776.7,12.712-23.384,16.688-.849L627.246,1773Zm-.672-35.08,1.9-11.3,2.409-.122-1.96,11.3Zm4.367-.223,1.96-11.3,4.033-.2-1.96,11.3Z" fill="#212121"/><path d="M633.632,1767.575l5.936-16.711,18.648,3.362-4.872,13.465,4.312.62,8.4-19.3-20.776-4.095,1.344-2.252,14.224-10.861-24.192,1.231.784-2.5,38.193-1.944-.729,2.557-18.648,13.381,18.984,3.683-10.584,23.609Zm16.632-12.271-4.144-.742-4.312,11.589,4.256.567Z" fill="#212121"/><path d="M679.1,1767.837l.392-2.542,4.872-1.591,2.016-17.855-4.256.216.9-2.454,3.64-.185,1.848-16.5-5.041.257.9-2.509,15.568-.792-.9,2.508-3.64.186-1.792,16.5,4.312-.22-.84,2.451-3.752.191-1.736,15.825,5.32-1.725-.391,2.539Zm36.96,1.029-4.984-7.194-.784,8.049-6.439.327.783-7.768-6.048,6.188-8.848.451,15.12-13.595-6.72.342,1.4-11.663,23.464-1.194-1.4,11.663-9.912.505-2.745,2.827,5.152-.262,1.4,1.722,2.632-3.83,5.825-.3L719.818,1761l-2.744.14,6.048,7.364Zm-19.543-26.446.783-2.334,28.9-1.471-.729,2.332Zm2.519-4.159,1.848-15.607,25.313-1.288-1.681,15.6Zm9.3-13.97-2.128.108-1.232,11.655,2.072-.1Zm7.449,21.069-9.857.5-.9,7.382,9.856-.5ZM713.994,1724l-2.128.109-1.233,11.655,2.128-.109Zm5.935-.3-2.3.117-1.288,11.658,2.24-.114Z" fill="#212121"/><path d="M745.634,1736.618l.728-2.166-3.36.171-2.8,24.56,5.489-1.287-.393,2.539-18.032,4.223.392-2.54,5.152-1.215,3.024-25.915-4.872.248.9-2.509,4.256-.216,1.4-11.945,7.111-.362-1.344,11.942,4.705-.24-.785,2.392,5.321-.271-1.569-6.53,6.384-.324,1.289,6.544,1.847-.094,3.584-6.792,7.057-.36-4.144,6.821,7.728-.393-.728,2.277Zm11.2,30.006,1.457-11.553-1.625.082-8.231,12.627-8.009.407,9.576-12.7-3.975.2,2.128-17.471,23.128-1.177-1.9,17.459-4.48.228-1.064,9.182,8.624-.439-.9,2.4Zm-8.792-40.154.729-2.389,9.016-.459.672-5.241,7.391-.376-.672,5.241,9.689-.493-.672,2.386Zm15.569,20.433-10.137.516-.672,5.8,10.137-.516Zm.84-7.379-10.08.513-.617,5.3,10.081-.513Z" fill="#212121"/><path d="M791.5,1764.188l.672-2.5,7.112-.362,4.256-31.41-6.832.348-11.481,34.408-8.064.41,11.537-34.411-9.521.485.784-2.505,9.577-.487,3.527-10.6,8.009-.408-3.528,10.6,13.945-.709-4.929,36.371Zm23.856-13.086-1.792-25.894,7.336-.374,2.3,25.869Zm-.9-27.844,1.344-8.3,2.409-.122-1.4,8.3Zm4.369-.223,1.4-8.3,4.033-.205-1.4,8.3Z" fill="#212121"/><path d="M826.445,1762.523l.84-2.34,18.145-.923.5-3.946-14.168.721.84-2.283,13.552-.69.336-3.04-12.936.658,2.52-20.626,12.824-.652.281-2.815-17.81.906.784-2.5,17.3-.881.393-3.211-14.281,1.566,2.072-4.978,33.993-3.914-2.128,5.15-12.265,1.35-.448,3.664,18.089-.921-.728,2.5-17.64.9-.28,2.815,13.216-.672-2.52,20.625-13.1.667-.336,3.041,13.833-.7-.784,2.28-13.272.676-.5,3.945,19.6-1-.84,2.34Zm21.393-21.922-5.936.3-.9,7.214,5.993-.3Zm1.009-9.013-5.825.3-.84,6.82,5.88-.3Zm11.928,8.355-6.048.308-.84,7.211,5.991-.305Zm1.12-9.019-6.16.314-.785,6.817,6.1-.31Z" fill="#212121"/><path d="M905.8,1759.772l-8.01-3.905-9.3,4.785-12.713.647,16.129-8.268-6.832-3.35,3.192-5.649-11.649.593.785-2.505,12.265-.624,1.624-2.884,7.5-.382-1.624,2.884,24.417-1.243-.728,2.5-8.961.456-3.528,7.628-4.648,2.365,13.889,6.349Zm-24.978-21.746,2.128-17.078,9.968-.507.561-4.4-12.769.649.784-2.5,42.114-2.144-.728,2.5-12.1.616-.559,4.4,10.192-.519-2.016,17.073Zm12.657-15.26-3.64.185-1.513,12.453,3.584-.183Zm10.7,20.457-8.457.43-2.521,4.384,4.424,2.016,4.537-2.3Zm-1.233-20.939-3.416.174-1.512,12.453,3.472-.177Zm.84-6.764-3.416.174-.56,4.4,3.416-.174Zm9.017,6.262-3.7.189-1.569,12.455,3.809-.194Z" fill="#212121"/><path d="M926.242,1757.612l1.177-9.748,9.632-.49-1.176,9.748Zm2.969-14.208,2.24-31.7,10.361-.527-5.937,31.888Z" fill="#212121"/></g></g></svg>